<?xml version="1.0" encoding="UTF-8"?>
<svg version="1.1" xmlns="http://www.w3.org/2000/svg" width="225" height="225">
<path d="M0 0 C74.25 0 148.5 0 225 0 C225 74.25 225 148.5 225 225 C150.75 225 76.5 225 0 225 C0 150.75 0 76.5 0 0 Z " fill="#E12363" transform="translate(0,0)"/>
<path d="M0 0 C74.25 0 148.5 0 225 0 C225 74.25 225 148.5 225 225 C150.75 225 76.5 225 0 225 C0 150.75 0 76.5 0 0 Z M88 12 C86.83855469 12.25523438 85.67710938 12.51046875 84.48046875 12.7734375 C59.54405258 18.98616747 37.5835504 36.65870964 24.15234375 58.3046875 C18.57761343 67.68470283 14.85053434 77.49189385 12 88 C11.64164063 89.12792969 11.28328125 90.25585938 10.9140625 91.41796875 C9.30768554 97.96411054 9.60602682 104.79930365 9.625 111.5 C9.62554382 112.21686981 9.62608765 112.93373962 9.62664795 113.67233276 C9.66385324 124.30783714 10.2440851 133.94570474 14 144 C14.23025879 144.64163086 14.46051758 145.28326172 14.69775391 145.94433594 C24.81437976 173.96691461 43.99526828 194.50052656 70.796875 207.33984375 C73.82913276 208.68796916 76.88023265 209.86932068 80 211 C81.05316406 211.39574219 82.10632813 211.79148438 83.19140625 212.19921875 C101.44354707 217.90927378 126.06725583 217.60114204 144 211 C145.70542969 210.42185547 145.70542969 210.42185547 147.4453125 209.83203125 C173.0681391 200.64705049 194.17397065 181.76505406 205.92822266 157.21777344 C207.43492881 153.86491546 208.73913614 150.451635 210 147 C210.2568457 146.32646484 210.51369141 145.65292969 210.77832031 144.95898438 C218.98718471 122.64014639 217.73575137 94.38110073 208.16796875 72.7578125 C206.28935601 68.73490086 204.20195009 64.85391909 202 61 C201.64969727 60.38302246 201.29939453 59.76604492 200.93847656 59.13037109 C197.48714107 53.12325942 194.05348246 47.81880061 189 43 C188.28457031 42.26136719 187.56914062 41.52273437 186.83203125 40.76171875 C186.16558594 40.07722656 185.49914062 39.39273438 184.8125 38.6875 C184.13832031 37.99011719 183.46414062 37.29273437 182.76953125 36.57421875 C181.14569097 34.77844303 181.14569097 34.77844303 179 35 C179 34.34 179 33.68 179 33 C153.33466254 11.8173071 120.15651155 4.5217415 88 12 Z " fill="#FDFDFD" transform="translate(0,0)"/>
<path d="M0 0 C0.66 0.33 1.32 0.66 2 1 C1.82984375 1.53625 1.6596875 2.0725 1.484375 2.625 C0.94901227 4.35638586 0.43494575 6.09439898 -0.06640625 7.8359375 C-0.6875197 9.94096636 -1.36225206 12.03092521 -2.08984375 14.1015625 C-7.79506435 32.41511759 -7.72500229 56.99768617 -1 75 C-0.76974121 75.64163086 -0.53948242 76.28326172 -0.30224609 76.94433594 C9.6302036 104.45675526 28.42332174 124.7055857 54.796875 137.33984375 C57.82913276 138.68796916 60.88023265 139.86932068 64 141 C65.05316406 141.39574219 66.10632813 141.79148438 67.19140625 142.19921875 C85.44354707 147.90927378 110.06725583 147.60114204 128 141 C129.70542969 140.42185547 129.70542969 140.42185547 131.4453125 139.83203125 C156.71332956 130.77423859 177.34115466 112.44156862 188.93041992 88.21557617 C190.43497808 84.86290588 191.73948771 81.45067257 193 78 C193.2568457 77.32646484 193.51369141 76.65292969 193.77832031 75.95898438 C201.29865734 55.51216303 200.40745533 29.59539215 194 9 C194.99 8.34 195.98 7.68 197 7 C199.60018816 10.90028225 199.15085514 14.47434569 199 19 C199.66 19.33 200.32 19.66 201 20 C200.88184174 26.21147698 200.75759956 32.42279095 200.62768555 38.6340332 C200.58433936 40.7476062 200.54266406 42.86121414 200.50268555 44.97485352 C200.44497551 48.01068664 200.38128299 51.04634389 200.31640625 54.08203125 C200.29969376 55.02899368 200.28298126 55.97595612 200.26576233 56.95161438 C200.24581711 57.83230087 200.22587189 58.71298737 200.20532227 59.62036133 C200.18977798 60.39535477 200.1742337 61.17034821 200.15821838 61.96882629 C200 64 200 64 199 67 C198.87011251 70.34099485 198.75218401 73.6759792 198.74609375 77.01953125 C198.60446947 81.02228053 198.27574019 82.70440997 195.50390625 85.67578125 C194.67761719 86.44277344 193.85132813 87.20976562 193 88 C192.19904976 90.64009148 192.19904976 90.64009148 192.1875 93.3125 C192.13980469 94.19550781 192.09210938 95.07851562 192.04296875 95.98828125 C192.02878906 96.65214844 192.01460937 97.31601563 192 98 C190.2984375 98.5878125 190.2984375 98.5878125 188.5625 99.1875 C184.87961767 100.57121242 184.87961767 100.57121242 184.0625 103.3125 C183.99505679 106.21255793 183.93254763 109.09954802 184 112 C178.25 115 178.25 115 176 115 C175.01 116.98 175.01 116.98 174 119 C173.34 119 172.68 119 172 119 C171.54625 119.804375 171.0925 120.60875 170.625 121.4375 C169 124 169 124 166.8125 124.8125 C166.214375 124.874375 165.61625 124.93625 165 125 C165 125.66 165 126.32 165 127 C164.34 127 163.68 127 163 127 C162.9175 127.61875 162.835 128.2375 162.75 128.875 C162 131 162 131 160.0625 132.125 C159.0415625 132.558125 159.0415625 132.558125 158 133 C157.34 133.66 156.68 134.32 156 135 C154.60189958 135.6654958 153.18188044 136.28568866 151.75 136.875 C147.85126934 138.55483894 144.46495208 140.52503423 141 143 C138 145 138 145 135 145 C135 145.66 135 146.32 135 147 C133.96875 146.938125 132.9375 146.87625 131.875 146.8125 C127.69817968 147.01460421 125.66421164 148.12891321 122 150 C120 150 118 150 116 150 C115.40388916 150.48750732 114.80777832 150.97501465 114.19360352 151.47729492 C111.32841237 153.46618721 109.49235384 153.37312578 106.02734375 153.36328125 C104.88072266 153.36263672 103.73410156 153.36199219 102.55273438 153.36132812 C101.35970703 153.34521484 100.16667969 153.32910156 98.9375 153.3125 C97.1421582 153.31733398 97.1421582 153.31733398 95.31054688 153.32226562 C86.40066742 153.26711162 86.40066742 153.26711162 83 151 C81.11019399 150.73476407 79.21853569 150.47737638 77.3203125 150.28125 C73.16705434 149.77782477 69.09263084 148.85457871 65 148 C64.1234375 147.82597656 63.246875 147.65195313 62.34375 147.47265625 C60.20940702 147.04223041 58.1072524 146.5463247 56 146 C55.505 143.525 55.505 143.525 55 141 C53.5459375 141.0309375 53.5459375 141.0309375 52.0625 141.0625 C49 141 49 141 48 140 C46.65252916 139.76924918 45.29622435 139.58846937 43.9375 139.4375 C42.638125 139.293125 41.33875 139.14875 40 139 C39.67 137.68 39.34 136.36 39 135 C37.68 134.67 36.36 134.34 35 134 C35 133.01 35 132.02 35 131 C33.741875 130.938125 32.48375 130.87625 31.1875 130.8125 C27.27190599 130.34207528 27.27190599 130.34207528 25.0625 127.5625 C24.711875 126.716875 24.36125 125.87125 24 125 C23.13293967 122.75903342 23.13293967 122.75903342 20.5625 121.8125 C17.10274347 119.36535514 16.839938 117.04697402 16 113 C15.34 113 14.68 113 14 113 C13.67 111.68 13.34 110.36 13 109 C11.68 108.67 10.36 108.34 9 108 C8.67 105.03 8.34 102.06 8 99 C6.8553125 98.9071875 6.8553125 98.9071875 5.6875 98.8125 C3 98 3 98 1.1875 96.0625 C-0.5043079 91.69941646 -0.24243657 87.62425317 0 83 C-1.485 83.495 -1.485 83.495 -3 84 C-3.99 83.67 -4.98 83.34 -6 83 C-8.53815317 76.01730556 -8.27384699 68.98952766 -8.23046875 61.63671875 C-8.23001053 60.36778275 -8.22955231 59.09884674 -8.2290802 57.79145813 C-8.22606947 55.1211677 -8.21930817 52.45122931 -8.20581055 49.78100586 C-8.18873563 46.36019378 -8.18499924 42.93952934 -8.18575573 39.51867962 C-8.18541871 36.2455114 -8.17658667 32.97237413 -8.16796875 29.69921875 C-8.16685593 28.47111984 -8.1657431 27.24302094 -8.16459656 25.97770691 C-8.15821671 24.84255142 -8.15183685 23.70739594 -8.14526367 22.5378418 C-8.14145187 21.5382695 -8.13764008 20.5386972 -8.13371277 19.50883484 C-8 17 -8 17 -7 14 C-6.65179959 12.33637583 -6.31595508 10.67004829 -6 9 C-5.34 9 -4.68 9 -4 9 C-3.67 7.68 -3.34 6.36 -3 5 C-2.34 5 -1.68 5 -1 5 C-0.67 3.35 -0.34 1.7 0 0 Z " fill="#E1D1D7" transform="translate(16,69)"/>
<path d="M0 0 C2.97 0 5.94 0 9 0 C11.87208496 6.80790509 14.21765644 13.6582307 16.33666992 20.72851562 C17.15697485 24.13798225 17.15697485 24.13798225 19 27 C19.40109985 25.82642944 19.40109985 25.82642944 19.81030273 24.62915039 C21.01635209 21.10589254 22.22686365 17.58418419 23.4375 14.0625 C23.85837891 12.83080078 24.27925781 11.59910156 24.71289062 10.33007812 C25.31713867 8.5753418 25.31713867 8.5753418 25.93359375 6.78515625 C26.30540771 5.70113525 26.67722168 4.61711426 27.06030273 3.50024414 C28 1 28 1 29 0 C30.34267413 -0.08631874 31.68974322 -0.10706473 33.03515625 -0.09765625 C34.12775757 -0.09390991 34.12775757 -0.09390991 35.24243164 -0.09008789 C36.1730542 -0.08098389 37.10367676 -0.07187988 38.0625 -0.0625 C42.4865625 -0.0315625 42.4865625 -0.0315625 47 0 C49.97 9.24 52.94 18.48 56 28 C57.299375 24.308125 58.59875 20.61625 59.9375 16.8125 C60.34605225 15.6572583 60.75460449 14.5020166 61.17553711 13.31176758 C61.4978833 12.39032959 61.82022949 11.4688916 62.15234375 10.51953125 C62.6472229 9.11344604 62.6472229 9.11344604 63.15209961 7.67895508 C63.95898039 5.12960211 64.53068176 2.63026798 65 0 C68.3 0 71.6 0 75 0 C73.47021592 8.04005836 70.80846232 15.51237369 68 23.1875 C67.54374567 24.44447096 67.08801312 25.70163144 66.6328125 26.95898438 C65.79575896 29.27078757 64.95621711 31.58169256 64.11328125 33.89135742 C63.03079703 36.91400469 62.00331204 39.95026356 61 43 C58.03 43 55.06 43 52 43 C48.6749463 34.87381735 45.68133764 26.65009838 42.75 18.375 C42.2866379 17.07155073 41.82309738 15.76816488 41.359375 14.46484375 C40.23783489 11.31051219 39.1180857 8.15555731 38 5 C35.84417868 8.23373198 34.78391003 11.4019022 33.625 15.0625 C31.6477771 21.15024604 29.45346847 27.08626125 27 33 C26.2477721 34.8741073 25.49773769 36.74909666 24.75 38.625 C24.16666667 40.08333333 23.58333333 41.54166667 23 43 C20.03 43 17.06 43 14 43 C13.36384766 41.18242187 13.36384766 41.18242187 12.71484375 39.328125 C12.43455322 38.52753662 12.1542627 37.72694824 11.86547852 36.90209961 C11.2416611 35.11927179 10.61846138 33.33622773 9.99584961 31.55297852 C8.3370643 26.80484612 6.66802843 22.06081649 4.9765625 17.32421875 C4.49521851 15.96925293 4.49521851 15.96925293 4.00415039 14.58691406 C3.38469988 12.84403697 2.76158952 11.10245559 2.13452148 9.36230469 C1.85423096 8.57114258 1.57394043 7.77998047 1.28515625 6.96484375 C1.03644775 6.2699585 0.78773926 5.57507324 0.53149414 4.85913086 C0 3 0 3 0 0 Z " fill="#F8F4F7" transform="translate(75,91)"/>
<path d="M0 0 C3.63 0 7.26 0 11 0 C14.63 9.24 18.26 18.48 22 28 C24.8763428 19.90919341 24.8763428 19.90919341 27.74365234 11.81518555 C28.10410645 10.8075415 28.46456055 9.79989746 28.8359375 8.76171875 C29.20251465 7.73006592 29.5690918 6.69841309 29.94677734 5.63549805 C31 3 31 3 33 0 C36.63 0 40.26 0 44 0 C44 14.19 44 28.38 44 43 C41.03 43 38.06 43 35 43 C34.67 35.74 34.34 28.48 34 21 C31.03 28.26 28.06 35.52 25 43 C22.69 43 20.38 43 18 43 C15.36 35.74 12.72 28.48 10 21 C9.67 28.26 9.34 35.52 9 43 C6.03 43 3.06 43 0 43 C0 28.81 0 14.62 0 0 Z " fill="#F6ECF1" transform="translate(28,91)"/>
<path d="M0 0 C3.63 0 7.26 0 11 0 C15.36881893 9.12312188 18.73917192 18.44162766 22 28 C25.760649 18.7034888 29.37420491 9.34966263 33 0 C36.63 0 40.26 0 44 0 C44 14.19 44 28.38 44 43 C41.03 43 38.06 43 35 43 C34.67 35.74 34.34 28.48 34 21 C32.865625 23.8875 31.73125 26.775 30.5625 29.75 C30.20615479 30.65331055 29.84980957 31.55662109 29.48266602 32.48730469 C29.20092529 33.20821289 28.91918457 33.92912109 28.62890625 34.671875 C28.34088135 35.4050293 28.05285645 36.13818359 27.75610352 36.89355469 C27.03135375 38.9126509 26.4810009 40.91084587 26 43 C23.69 43 21.38 43 19 43 C18.24902565 41.20874151 17.49928538 39.41696564 16.75 37.625 C16.33234375 36.62726563 15.9146875 35.62953125 15.484375 34.6015625 C13.62158312 30.08184115 11.81556013 25.53890031 10 21 C9.67 28.26 9.34 35.52 9 43 C6.03 43 3.06 43 0 43 C0 28.81 0 14.62 0 0 Z " fill="#F9F6F8" transform="translate(153,91)"/>
<path d="M0 0 C0.495 0.99 0.495 0.99 1 2 C1.66 2 2.32 2 3 2 C3 14.54 3 27.08 3 40 C2.67 40 2.34 40 2 40 C2 33.07 2 26.14 2 19 C0.35 18.67 -1.3 18.34 -3 18 C-6.54159459 22.57455967 -6.30739431 26.48967236 -6 32 C-6 32.33 -6 32.66 -6 33 C-5.93555654 35.029969 -5.87100031 37.05993496 -5.8046875 39.08984375 C-6 41 -6 41 -8 43 C-10.24658203 43.22705078 -10.24658203 43.22705078 -13.0078125 43.1953125 C-13.99394531 43.18886719 -14.98007813 43.18242187 -15.99609375 43.17578125 C-17.02863281 43.15902344 -18.06117188 43.14226562 -19.125 43.125 C-20.16527344 43.11597656 -21.20554688 43.10695312 -22.27734375 43.09765625 C-24.85179092 43.07403747 -27.42578212 43.04110149 -30 43 C-29.97679687 41.94039062 -29.95359375 40.88078125 -29.9296875 39.7890625 C-29.91093056 38.4010487 -29.89273028 37.0130273 -29.875 35.625 C-29.85824219 34.92632812 -29.84148437 34.22765625 -29.82421875 33.5078125 C-29.80655733 31.67102514 -29.89696739 29.83398037 -30 28 C-30.66 27.34 -31.32 26.68 -32 26 C-32.66 25.34 -33.32 24.68 -34 24 C-34.53625 24.495 -35.0725 24.99 -35.625 25.5 C-38.59358445 27.37489544 -40.55312427 27.23501425 -44 27 C-45.97968773 31.94921933 -46.08724385 35.76536924 -46 41 C-46.33 41.66 -46.66 42.32 -47 43 C-48.74991334 43.02715383 -50.49994945 43.04646551 -52.25 43.0625 C-53.22453125 43.07410156 -54.1990625 43.08570313 -55.203125 43.09765625 C-57.65758678 43.01195577 -59.66168914 42.70706066 -62 42 C-61.67 41.01 -61.34 40.02 -61 39 C-61 39.66 -61 40.32 -61 41 C-58.03 41 -55.06 41 -52 41 C-51.443125 39.0509375 -51.443125 39.0509375 -50.875 37.0625 C-47.2044607 24.83891159 -42.66646106 12.87263322 -38 1 C-35.31988931 3.68011069 -34.46156057 6.77416013 -33.21484375 10.2734375 C-32.95369278 10.99359039 -32.69254181 11.71374329 -32.42347717 12.45571899 C-31.8720506 13.97961991 -31.32332617 15.50450091 -30.77709961 17.03027344 C-29.94255406 19.36088567 -29.09997278 21.68846321 -28.25585938 24.015625 C-27.72087911 25.49722438 -27.18635871 26.97898992 -26.65234375 28.4609375 C-26.40129379 29.15585297 -26.15024384 29.85076843 -25.8915863 30.56674194 C-24.77126247 33.70133151 -23.808671 36.76531602 -23 40 C-20.03 40.33 -17.06 40.66 -14 41 C-13.91363281 40.22914063 -13.82726562 39.45828125 -13.73828125 38.6640625 C-12.73667931 33.69314917 -10.96742665 29.11410993 -9.1875 24.375 C-8.45963973 22.41063663 -7.73306699 20.44579568 -7.0078125 18.48046875 C-6.66008789 17.53864746 -6.31236328 16.59682617 -5.95410156 15.62646484 C-4.43066377 11.43272285 -3.04400385 7.20110627 -1.69140625 2.94921875 C-1 1 -1 1 0 0 Z M-35 26 C-33 27 -33 27 -33 27 Z " fill="#BE1B53" transform="translate(150,93)"/>
<path d="M0 0 C4 2 4 2 5.03320312 3.88842773 C5.28005859 4.64583252 5.52691406 5.4032373 5.78125 6.18359375 C6.06411865 7.02414307 6.3469873 7.86469238 6.63842773 8.73071289 C6.92274658 9.62395264 7.20706543 10.51719238 7.5 11.4375 C8.10488858 13.25800537 8.71035346 15.07831937 9.31640625 16.8984375 C9.60402832 17.77725586 9.89165039 18.65607422 10.18798828 19.56152344 C11.47195879 23.41729536 12.91981857 27.20873056 14.37109375 31.00390625 C15 33 15 33 15 36 C12.69 36 10.38 36 8 36 C8.03480469 34.94039062 8.06960937 33.88078125 8.10546875 32.7890625 C8.13360399 31.40105748 8.16090443 30.01303537 8.1875 28.625 C8.21263672 27.92632812 8.23777344 27.22765625 8.26367188 26.5078125 C8.32978561 24.23252323 8.32978561 24.23252323 8 21 C7.01 20.34 6.02 19.68 5 19 C1.5036129 22.4963871 1.95381075 27.44315453 1.90234375 32.18359375 C1.90887832 33.60159587 1.92063548 35.01958311 1.9375 36.4375 C1.94201172 37.16904297 1.94652344 37.90058594 1.95117188 38.65429688 C1.96281852 40.43623419 1.98074809 42.21812863 2 44 C-0.76587399 45.38293699 -2.67791106 44.86596244 -5.75 44.5625 C-14.51451292 43.81264723 -23.34861082 43.19449269 -32 45 C-34.4375 44.625 -34.4375 44.625 -37 44 C-38.99897128 43.66055205 -40.99875639 43.32578384 -43 43 C-43 42.67 -43 42.34 -43 42 C-40.36 42 -37.72 42 -35 42 C-35 34.41 -35 26.82 -35 19 C-32.35819584 20.32090208 -32.27714356 21.40954958 -31.2734375 24.1484375 C-30.9640625 24.98890625 -30.6546875 25.829375 -30.3359375 26.6953125 C-30.01882812 27.57960938 -29.70171875 28.46390625 -29.375 29.375 C-29.05015625 30.2515625 -28.7253125 31.128125 -28.390625 32.03125 C-26 38.60044643 -26 38.60044643 -26 42 C-23.69 42 -21.38 42 -19 42 C-18.85304688 41.44054687 -18.70609375 40.88109375 -18.5546875 40.3046875 C-16.38662926 32.55450228 -13.26570637 25.33462854 -10 18 C-9.67 18 -9.34 18 -9 18 C-9 25.92 -9 33.84 -9 42 C-6.03 42 -3.06 42 0 42 C0 28.14 0 14.28 0 0 Z " fill="#B72256" transform="translate(72,92)"/>
<path d="M0 0 C0.66 0.33 1.32 0.66 2 1 C1.82984375 1.53625 1.6596875 2.0725 1.484375 2.625 C0.94901227 4.35638586 0.43494575 6.09439898 -0.06640625 7.8359375 C-0.6875197 9.94096636 -1.36225206 12.03092521 -2.08984375 14.1015625 C-7.79506435 32.41511759 -7.72500229 56.99768617 -1 75 C-0.76974121 75.64163086 -0.53948242 76.28326172 -0.30224609 76.94433594 C5.09879598 91.9049689 12.64077588 105.79180078 24.6875 116.5 C26.25381243 118.29007134 26.48267749 119.70900032 27 122 C27.99 122.99 27.99 122.99 29 124 C29 124.99 29 125.98 29 127 C29.99 127.495 29.99 127.495 31 128 C31.99 127.67 32.98 127.34 34 127 C34 127.66 34 128.32 34 129 C34.99 129.33 35.98 129.66 37 130 C37 130.99 37 131.98 37 133 C37.70125 132.938125 38.4025 132.87625 39.125 132.8125 C42.65260212 133.04256101 44.93984351 134.29200568 48 136 C48 136.66 48 137.32 48 138 C50.31 138.66 52.62 139.32 55 140 C55 140.33 55 140.66 55 141 C53.00045254 141.04254356 50.99958364 141.04080783 49 141 C48.67 140.67 48.34 140.34 48 140 C46.65252916 139.76924918 45.29622435 139.58846937 43.9375 139.4375 C42.638125 139.293125 41.33875 139.14875 40 139 C39.67 137.68 39.34 136.36 39 135 C37.68 134.67 36.36 134.34 35 134 C35 133.01 35 132.02 35 131 C33.741875 130.938125 32.48375 130.87625 31.1875 130.8125 C27.27190599 130.34207528 27.27190599 130.34207528 25.0625 127.5625 C24.711875 126.716875 24.36125 125.87125 24 125 C23.13293967 122.75903342 23.13293967 122.75903342 20.5625 121.8125 C17.10274347 119.36535514 16.839938 117.04697402 16 113 C15.34 113 14.68 113 14 113 C13.67 111.68 13.34 110.36 13 109 C11.68 108.67 10.36 108.34 9 108 C8.67 105.03 8.34 102.06 8 99 C6.8553125 98.9071875 6.8553125 98.9071875 5.6875 98.8125 C3 98 3 98 1.1875 96.0625 C-0.5043079 91.69941646 -0.24243657 87.62425317 0 83 C-1.485 83.495 -1.485 83.495 -3 84 C-3.99 83.67 -4.98 83.34 -6 83 C-8.53815317 76.01730556 -8.27384699 68.98952766 -8.23046875 61.63671875 C-8.23001053 60.36778275 -8.22955231 59.09884674 -8.2290802 57.79145813 C-8.22606947 55.1211677 -8.21930817 52.45122931 -8.20581055 49.78100586 C-8.18873563 46.36019378 -8.18499924 42.93952934 -8.18575573 39.51867962 C-8.18541871 36.2455114 -8.17658667 32.97237413 -8.16796875 29.69921875 C-8.16685593 28.47111984 -8.1657431 27.24302094 -8.16459656 25.97770691 C-8.15821671 24.84255142 -8.15183685 23.70739594 -8.14526367 22.5378418 C-8.14145187 21.5382695 -8.13764008 20.5386972 -8.13371277 19.50883484 C-8 17 -8 17 -7 14 C-6.65179959 12.33637583 -6.31595508 10.67004829 -6 9 C-5.34 9 -4.68 9 -4 9 C-3.67 7.68 -3.34 6.36 -3 5 C-2.34 5 -1.68 5 -1 5 C-0.67 3.35 -0.34 1.7 0 0 Z " fill="#D6D0D2" transform="translate(16,69)"/>
<path d="M0 0 C3.63 0 7.26 0 11 0 C13.85751667 6.42941251 15.52010174 10.97862649 15 18 C14.34 17.01 13.68 16.02 13 15 C12.01 15 11.02 15 10 15 C9.67 15 9.34 15 9 15 C8.67 23.91 8.34 32.82 8 42 C5.36 42 2.72 42 0 42 C0 28.14 0 14.28 0 0 Z " fill="#FBFAFC" transform="translate(28,91)"/>
<path d="M0 0 C0.495 1.485 0.495 1.485 1 3 C1.66 3 2.32 3 3 3 C4.24832991 6.74498972 3.58733198 9.11059635 3 13 C2.92276077 15.41434873 2.89197653 17.83053207 2.90234375 20.24609375 C2.90446617 21.23005882 2.90446617 21.23005882 2.90663147 22.23390198 C2.91216969 24.30181702 2.92470998 26.36961842 2.9375 28.4375 C2.94252301 29.85090988 2.9470845 31.26432148 2.95117188 32.67773438 C2.96211874 36.11852568 2.97933962 39.55925172 3 43 C2.34 43 1.68 43 1 43 C1 43.66 1 44.32 1 45 C0.22914063 44.91621094 -0.54171875 44.83242187 -1.3359375 44.74609375 C-2.33882812 44.64425781 -3.34171875 44.54242188 -4.375 44.4375 C-5.37273437 44.33308594 -6.37046875 44.22867188 -7.3984375 44.12109375 C-9.984037 43.78855292 -9.984037 43.78855292 -12 45 C-14.125 44.0625 -14.125 44.0625 -16 43 C-16.33 43.66 -16.66 44.32 -17 45 C-34.85649203 45.18451025 -34.85649203 45.18451025 -43 44 C-43 43.67 -43 43.34 -43 43 C-40.36 43 -37.72 43 -35 43 C-35 35.08 -35 27.16 -35 19 C-32.60764461 22.18980719 -31.4537005 23.97834576 -30.17578125 27.546875 C-29.86962891 28.39121094 -29.56347656 29.23554687 -29.24804688 30.10546875 C-28.93931641 30.97816406 -28.63058594 31.85085937 -28.3125 32.75 C-27.99216797 33.63816406 -27.67183594 34.52632812 -27.34179688 35.44140625 C-26.55505865 37.6254855 -25.77470359 39.81162925 -25 42 C-21.535 42.495 -21.535 42.495 -18 43 C-17.89558594 42.18144531 -17.79117188 41.36289063 -17.68359375 40.51953125 C-16.8787108 36.37553389 -15.55645626 32.62480919 -14.0625 28.6875 C-13.79759766 27.95982422 -13.53269531 27.23214844 -13.25976562 26.48242188 C-11.24705967 21.12352983 -11.24705967 21.12352983 -9 20 C-9 27.59 -9 35.18 -9 43 C-6.03 43 -3.06 43 0 43 C0 28.81 0 14.62 0 0 Z " fill="#BF2458" transform="translate(197,91)"/>
<path d="M0 0 C3.63 0 7.26 0 11 0 C11 14.19 11 28.38 11 43 C8.03 43 5.06 43 2 43 C1.8401345 33.62122392 2.33566818 24.34809779 3 15 C2.34 15 1.68 15 1 15 C0.67 14.34 0.34 13.68 0 13 C-0.99 13 -1.98 13 -3 13 C-2.01 8.71 -1.02 4.42 0 0 Z " fill="#FAF7F9" transform="translate(61,91)"/>
<path d="M0 0 C0.46148437 0.35191406 0.92296875 0.70382813 1.3984375 1.06640625 C3.5890759 2.72453769 5.7926119 4.36423194 8 6 C8.77085938 6.57621094 9.54171875 7.15242187 10.3359375 7.74609375 C20.76768377 15.32514565 31.74622441 20.03483024 44.09375 23.46435547 C45.91270665 23.9754711 47.71495439 24.5449744 49.515625 25.1171875 C56.02447467 26.704095 62.83900415 26.3930081 69.5 26.375 C70.21620514 26.37478851 70.93241028 26.37457703 71.6703186 26.37435913 C82.30599687 26.34292304 91.93314992 25.70566304 102 22 C103.13695312 21.61457031 104.27390625 21.22914063 105.4453125 20.83203125 C114.18947511 17.69752284 122.6498006 13.73756905 130 8 C130.99 8.495 130.99 8.495 132 9 C131.34 9.99 130.68 10.98 130 12 C129.01 11.505 129.01 11.505 128 11 C127.67 11.99 127.34 12.98 127 14 C123.9375 15.1875 123.9375 15.1875 121 16 C121 16.66 121 17.32 121 18 C116.33727563 22.06360336 111.31978675 23.67022198 105.296875 24.54296875 C102.88218477 25.02344283 101.18309018 25.88355274 99 27 C89.02731403 30.26433265 75.22523205 32.40841068 65 29 C62.85415875 28.97999882 60.70772938 29.00749412 58.5625 29.0625 C47.30039979 29.10889382 38.85801746 27.397222 29 22 C26.68546482 20.94793856 24.34727866 19.97803278 22 19 C21.34 18.67 20.68 18.34 20 18 C20 17.34 20 16.68 20 16 C19.36191406 15.89042969 18.72382812 15.78085938 18.06640625 15.66796875 C17.24011719 15.50941406 16.41382812 15.35085937 15.5625 15.1875 C14.73878906 15.03667969 13.91507813 14.88585937 13.06640625 14.73046875 C12.38449219 14.48941406 11.70257813 14.24835938 11 14 C10.67 13.01 10.34 12.02 10 11 C9.01 10.34 8.02 9.68 7 9 C6.01 9.33 5.02 9.66 4 10 C3.01 8.68 2.02 7.36 1 6 C1.33 5.67 1.66 5.34 2 5 C1.34 4.34 0.68 3.68 0 3 C0 2.01 0 1.02 0 0 Z " fill="#C8C4C6" transform="translate(42,188)"/>
<path d="M0 0 C0.495 1.485 0.495 1.485 1 3 C-0.3125 4.5 -0.3125 4.5 -2 6 C-2.99 6 -3.98 6 -5 6 C-5 6.66 -5 7.32 -5 8 C-5.66 8 -6.32 8 -7 8 C-7.0825 8.61875 -7.165 9.2375 -7.25 9.875 C-8 12 -8 12 -9.9375 13.125 C-10.618125 13.41375 -11.29875 13.7025 -12 14 C-12.66 14.66 -13.32 15.32 -14 16 C-15.39810042 16.6654958 -16.81811956 17.28568866 -18.25 17.875 C-22.14873066 19.55483894 -25.53504792 21.52503423 -29 24 C-32 26 -32 26 -35 26 C-35 26.66 -35 27.32 -35 28 C-36.03125 27.938125 -37.0625 27.87625 -38.125 27.8125 C-42.30182032 28.01460421 -44.33578836 29.12891321 -48 31 C-50 31 -52 31 -54 31 C-54.59611084 31.48750732 -55.19222168 31.97501465 -55.80639648 32.47729492 C-58.67158763 34.46618721 -60.50764616 34.37312578 -63.97265625 34.36328125 C-65.11927734 34.36263672 -66.26589844 34.36199219 -67.44726562 34.36132812 C-68.64029297 34.34521484 -69.83332031 34.32910156 -71.0625 34.3125 C-72.25939453 34.31572266 -73.45628906 34.31894531 -74.68945312 34.32226562 C-83.59933258 34.26711162 -83.59933258 34.26711162 -87 32 C-88.88980601 31.73476407 -90.78146431 31.47737638 -92.6796875 31.28125 C-96.83294566 30.77782477 -100.90736916 29.85457871 -105 29 C-106.31484375 28.73896484 -106.31484375 28.73896484 -107.65625 28.47265625 C-109.79059298 28.04223041 -111.8927476 27.5463247 -114 27 C-114.33 25.35 -114.66 23.7 -115 22 C-113.603522 22.45636536 -112.2078492 22.91519488 -110.8125 23.375 C-109.64654297 23.75785156 -109.64654297 23.75785156 -108.45703125 24.1484375 C-106 25 -106 25 -103.625 26.0625 C-100.42981054 27.20363909 -97.57161989 27.42351987 -94.1875 27.625 C-92.95773438 27.69976562 -91.72796875 27.77453125 -90.4609375 27.8515625 C-87.73561136 27.96845008 -85.03883534 28.03040523 -82.3125 28 C-79 28 -79 28 -76 29 C-64.17481537 29.76090323 -54.28529894 28.49942645 -43 25 C-41.33535801 24.65669846 -39.66885385 24.32220446 -38 24 C-33.12204159 22.63450068 -28.92884592 21.30023057 -25 18 C-24.34 18 -23.68 18 -23 18 C-23 17.34 -23 16.68 -23 16 C-21.5459375 15.319375 -21.5459375 15.319375 -20.0625 14.625 C-16.92920418 13.34213779 -16.92920418 13.34213779 -16 11 C-15.34 11 -14.68 11 -14 11 C-13.2575 10.2575 -12.515 9.515 -11.75 8.75 C-8.9977607 5.9977607 -6.35183117 3.96737917 -3 2 C-2.01 2 -1.02 2 0 2 C0 1.34 0 0.68 0 0 Z " fill="#DEDFDF" transform="translate(186,188)"/>
<path d="M0 0 C1.051875 0.30744141 1.051875 0.30744141 2.125 0.62109375 C6.6117795 1.89519282 10.98073648 3.10990895 15.625 3.625 C19 4 19 4 20 5 C24.70992022 5.34253965 28.22616986 5.04542809 32.6875 3.5 C37.84194995 1.79512784 42.5297951 1.79297273 47.921875 1.9921875 C51.06358305 2.00016138 53.921287 1.59915073 57 1 C57 1.66 57 2.32 57 3 C58.134375 2.814375 59.26875 2.62875 60.4375 2.4375 C62.2009375 2.2209375 62.2009375 2.2209375 64 2 C64.495 2.495 64.495 2.495 65 3 C66.66617115 3.04063832 68.33388095 3.042721 70 3 C61.02735023 8.98176651 48.78144568 8.56491344 38.375 8.5 C37.67944 8.49956696 36.98388 8.49913391 36.26724243 8.49868774 C9.42051138 8.40741294 9.42051138 8.40741294 1.01953125 1.33203125 C0.68308594 0.89246094 0.34664063 0.45289063 0 0 Z " fill="#DC1B5D" transform="translate(74,207)"/>
<path d="M0 0 C0.66 0.33 1.32 0.66 2 1 C1.82984375 1.53625 1.6596875 2.0725 1.484375 2.625 C0.94901227 4.35638586 0.43494575 6.09439898 -0.06640625 7.8359375 C-0.6875197 9.94096636 -1.36225206 12.03092521 -2.08984375 14.1015625 C-7.77230901 32.34207376 -5.65991659 53.63100232 -4.125 72.4375 C-4.04685059 73.40179932 -3.96870117 74.36609863 -3.88818359 75.35961914 C-3.59819273 78.70553985 -3.59819273 78.70553985 -3 82 C-2.34 82.33 -1.68 82.66 -1 83 C-1.99 83.495 -1.99 83.495 -3 84 C-3.99 83.67 -4.98 83.34 -6 83 C-8.53815317 76.01730556 -8.27384699 68.98952766 -8.23046875 61.63671875 C-8.23001053 60.36778275 -8.22955231 59.09884674 -8.2290802 57.79145813 C-8.22606947 55.1211677 -8.21930817 52.45122931 -8.20581055 49.78100586 C-8.18873563 46.36019378 -8.18499924 42.93952934 -8.18575573 39.51867962 C-8.18541871 36.2455114 -8.17658667 32.97237413 -8.16796875 29.69921875 C-8.16685593 28.47111984 -8.1657431 27.24302094 -8.16459656 25.97770691 C-8.15821671 24.84255142 -8.15183685 23.70739594 -8.14526367 22.5378418 C-8.14145187 21.5382695 -8.13764008 20.5386972 -8.13371277 19.50883484 C-8 17 -8 17 -7 14 C-6.65179959 12.33637583 -6.31595508 10.67004829 -6 9 C-5.34 9 -4.68 9 -4 9 C-3.67 7.68 -3.34 6.36 -3 5 C-2.34 5 -1.68 5 -1 5 C-0.67 3.35 -0.34 1.7 0 0 Z " fill="#EEEDED" transform="translate(16,69)"/>
<path d="M0 0 C2.60526888 2.60526888 3.34134224 5.17939234 4.625 8.625 C5.07101563 9.81351563 5.51703125 11.00203125 5.9765625 12.2265625 C6.31429687 13.14179687 6.65203125 14.05703125 7 15 C7.66 14.01 8.32 13.02 9 12 C9.33 13.32 9.66 14.64 10 16 C4.25 19 4.25 19 2 19 C2 20.65 2 22.3 2 24 C-1.27499599 19.08750601 -2.92532964 13.51425542 -5 8 C-5.33 15.26 -5.66 22.52 -6 30 C-8.97 30 -11.94 30 -15 30 C-15 29.67 -15 29.34 -15 29 C-12.36 29 -9.72 29 -7 29 C-7 20.09 -7 11.18 -7 2 C-6.01 2 -5.02 2 -4 2 C-1.84971696 1.05021103 -1.84971696 1.05021103 0 0 Z " fill="#F5E9EF" transform="translate(43,104)"/>
<path d="M0 0 C0.66 0.33 1.32 0.66 2 1 C2.02708567 2.60407328 2.04643483 4.2082785 2.0625 5.8125 C2.07410156 6.70582031 2.08570313 7.59914063 2.09765625 8.51953125 C2 11 2 11 1 14 C1.66 14 2.32 14 3 14 C3.11354457 20.7495936 3.05996573 27.32221592 2 34 C1.34 34.66 0.68 35.32 0 36 C-0.64767793 38.57061311 -0.64767793 38.57061311 -1 41 C-0.34 41 0.32 41 1 41 C0.67 41.99 0.34 42.98 0 44 C-0.66 44 -1.32 44 -2 44 C-2.88253565 39.45454703 -3.12876691 35.14682032 -3.1328125 30.51953125 C-3.13376923 29.82486252 -3.13472595 29.13019379 -3.13571167 28.41447449 C-3.13638824 26.9564098 -3.13457066 25.498342 -3.13037109 24.0402832 C-3.12499081 21.80868818 -3.13034628 19.57729217 -3.13671875 17.34570312 C-3.13605835 15.92447872 -3.13477799 14.50325445 -3.1328125 13.08203125 C-3.13168457 11.79530518 -3.13055664 10.5085791 -3.12939453 9.18286133 C-3 6 -3 6 -2 3 C-1.34 3 -0.68 3 0 3 C0 2.01 0 1.02 0 0 Z " fill="#E9296A" transform="translate(13,90)"/>
<path d="M0 0 C0.46148437 0.35191406 0.92296875 0.70382813 1.3984375 1.06640625 C3.5890759 2.72453769 5.7926119 4.36423194 8 6 C8.77085938 6.57621094 9.54171875 7.15242187 10.3359375 7.74609375 C20.32708365 15.00503327 30.66071632 19.48627911 42.43359375 22.921875 C45.37662101 23.81155246 48.17250211 24.80144598 51 26 C50.67 26.66 50.34 27.32 50 28 C39.84269135 28.90287188 30.74880385 23.60553471 22 19 C21.34 18.67 20.68 18.34 20 18 C20 17.34 20 16.68 20 16 C19.36191406 15.89042969 18.72382812 15.78085938 18.06640625 15.66796875 C17.24011719 15.50941406 16.41382812 15.35085937 15.5625 15.1875 C14.73878906 15.03667969 13.91507813 14.88585937 13.06640625 14.73046875 C12.38449219 14.48941406 11.70257813 14.24835938 11 14 C10.67 13.01 10.34 12.02 10 11 C9.01 10.34 8.02 9.68 7 9 C6.01 9.33 5.02 9.66 4 10 C3.01 8.68 2.02 7.36 1 6 C1.33 5.67 1.66 5.34 2 5 C1.34 4.34 0.68 3.68 0 3 C0 2.01 0 1.02 0 0 Z " fill="#CCC8C9" transform="translate(42,188)"/>
<path d="M0 0 C4.875 2.75 4.875 2.75 6 5 C6.99 5.33 7.98 5.66 9 6 C9 6.99 9 7.98 9 9 C10.32 9.33 11.64 9.66 13 10 C12.43174347 15.54050113 10.37113483 20.03715966 8 25 C5.37512784 21.06269176 3.95138679 16.92072468 2.3125 12.5 C1.97927734 11.63246094 1.64605469 10.76492187 1.30273438 9.87109375 C0.83770508 8.62005859 0.83770508 8.62005859 0.36328125 7.34375 C0.07751221 6.58255859 -0.20825684 5.82136719 -0.50268555 5.03710938 C-1 3 -1 3 0 0 Z " fill="#C7255B" transform="translate(42,95)"/>
<path d="M0 0 C0.66 0 1.32 0 2 0 C2.33 0.66 2.66 1.32 3 2 C3.66 2 4.32 2 5 2 C4.7168444 4.08450717 4.42314331 6.16758367 4.125 8.25 C3.96257813 9.41015625 3.80015625 10.5703125 3.6328125 11.765625 C3.08179569 14.58193313 2.44203518 16.55217557 1 19 C-1.31 19 -3.62 19 -6 19 C-7.28317892 15.15046324 -7.06643637 12.05261865 -7 8 C-6.34 8 -5.68 8 -5 8 C-4.67 7.34 -4.34 6.68 -4 6 C-1.9375 4.875 -1.9375 4.875 0 4 C0 2.68 0 1.36 0 0 Z " fill="#FBFAFC" transform="translate(52,115)"/>
<path d="M0 0 C0.99 0 1.98 0 3 0 C3 0.99 3 1.98 3 3 C3.66 3 4.32 3 5 3 C7.29648649 5.5614657 8 6.47967572 8 10 C9.65 10 11.3 10 13 10 C14.3274855 13.98245651 12.99907829 16.44789543 11.5625 20.1875 C11.31951172 20.84169922 11.07652344 21.49589844 10.82617188 22.16992188 C10.2256707 23.78303286 9.61390797 25.3919435 9 27 C7.19569658 24.29354488 6.29131833 22.26021271 5.2734375 19.21875 C4.9640625 18.29449219 4.6546875 17.37023437 4.3359375 16.41796875 C4.01882812 15.45503906 3.70171875 14.49210937 3.375 13.5 C2.88773437 12.05560547 2.88773437 12.05560547 2.390625 10.58203125 C2.08382812 9.65777344 1.77703125 8.73351562 1.4609375 7.78125 C1.18040527 6.93626953 0.89987305 6.09128906 0.61083984 5.22070312 C0 3 0 3 0 0 Z " fill="#C8255C" transform="translate(85,93)"/>
<path d="M0 0 C4.51799486 -0.36632391 4.51799486 -0.36632391 6.5625 1.1875 C7.036875 1.785625 7.51125 2.38375 8 3 C8.721875 3.825 9.44375 4.65 10.1875 5.5 C12 8 12 8 12 11 C12.66 11.33 13.32 11.66 14 12 C14.99 11.67 15.98 11.34 17 11 C17 11.66 17 12.32 17 13 C17.99 13.33 18.98 13.66 20 14 C20 14.99 20 15.98 20 17 C20.70125 16.938125 21.4025 16.87625 22.125 16.8125 C25.65260212 17.04256101 27.93984351 18.29200568 31 20 C31 20.66 31 21.32 31 22 C33.31 22.66 35.62 23.32 38 24 C38 24.33 38 24.66 38 25 C36.00045254 25.04254356 33.99958364 25.04080783 32 25 C31.67 24.67 31.34 24.34 31 24 C29.65252916 23.76924918 28.29622435 23.58846937 26.9375 23.4375 C25.638125 23.293125 24.33875 23.14875 23 23 C22.67 21.68 22.34 20.36 22 19 C20.68 18.67 19.36 18.34 18 18 C18 17.01 18 16.02 18 15 C16.741875 14.938125 15.48375 14.87625 14.1875 14.8125 C10.27190599 14.34207528 10.27190599 14.34207528 8.0625 11.5625 C7.711875 10.716875 7.36125 9.87125 7 9 C6.11388305 6.75427384 6.11388305 6.75427384 3.5 5.625 C1 4 1 4 0.1875 1.8125 C0.125625 1.214375 0.06375 0.61625 0 0 Z " fill="#E3E2E2" transform="translate(33,185)"/>
<path d="M0 0 C-0.99 0.33 -1.98 0.66 -3 1 C-3.33 1.99 -3.66 2.98 -4 4 C-5.98567708 3.67447917 -7.97135417 3.34895833 -9.95703125 3.0234375 C-12.31755824 2.80422152 -12.31755824 2.80422152 -15 5 C-16.21284876 8.05429073 -16.21284876 8.05429073 -17 11 C-17.969375 10.979375 -18.93875 10.95875 -19.9375 10.9375 C-22.87465895 10.64381501 -22.87465895 10.64381501 -24 12 C-26.18292774 12.23481693 -28.37203174 12.41363323 -30.5625 12.5625 C-31.76003906 12.64628906 -32.95757812 12.73007812 -34.19140625 12.81640625 C-35.11824219 12.87699219 -36.04507813 12.93757813 -37 13 C-34.32859657 9.80403008 -30.89460663 8.26985623 -27.1875 6.5625 C-26.5289502 6.25828125 -25.87040039 5.9540625 -25.19189453 5.640625 C-7.73651251 -2.18578049 -7.73651251 -2.18578049 0 0 Z " fill="#EA2D6D" transform="translate(96,12)"/>
<path d="M0 0 C0.33 0 0.66 0 1 0 C1.61916858 25.9701529 1.61916858 25.9701529 -2 37 C-2.99 37 -3.98 37 -5 37 C-4.9278125 36.030625 -4.855625 35.06125 -4.78125 34.0625 C-4.09662052 24.35809063 -3.88359186 14.72654643 -4 5 C-3.01 5.99 -2.02 6.98 -1 8 C-0.67 5.36 -0.34 2.72 0 0 Z " fill="#D91B5C" transform="translate(214,104)"/>
<path d="M0 0 C8.47585227 2.76988636 8.47585227 2.76988636 11.5625 4.125 C13.88003341 4.95693507 15.81692704 5.28258895 18.25 5.5625 C22 6 22 6 23 7 C24.66204487 7.20775561 26.33029491 7.36718255 28 7.5 C32.88888889 7.88888889 32.88888889 7.88888889 34 9 C36.65656878 9.10183014 39.28101425 9.14072051 41.9375 9.125 C42.70570068 9.12306641 43.47390137 9.12113281 44.26538086 9.11914062 C49.89950682 9.07646234 55.40669462 8.710261 61 8 C58.81543676 10.64718048 57.64504168 11.88780413 54.20678711 12.48583984 C53.1575708 12.47762207 52.10835449 12.4694043 51.02734375 12.4609375 C49.88072266 12.45707031 48.73410156 12.45320312 47.55273438 12.44921875 C45.76319336 12.41248047 45.76319336 12.41248047 43.9375 12.375 C42.74060547 12.37371094 41.54371094 12.37242187 40.31054688 12.37109375 C31.42158036 12.28105357 31.42158036 12.28105357 28 10 C26.11019399 9.73476407 24.21853569 9.47737638 22.3203125 9.28125 C18.16705434 8.77782477 14.09263084 7.85457871 10 7 C9.1234375 6.82597656 8.246875 6.65195313 7.34375 6.47265625 C5.20940702 6.04223041 3.1072524 5.5463247 1 5 C0.67 3.35 0.34 1.7 0 0 Z " fill="#E4E6E6" transform="translate(71,210)"/>
<path d="M0 0 C0.33 0 0.66 0 1 0 C2.24063784 7.65874066 2.11179358 15.25711646 2.0625 23 C2.05747487 24.36067544 2.05291376 25.72135267 2.04882812 27.08203125 C2.03710459 30.38806725 2.02069427 33.69401001 2 37 C-0.89151383 38.44575692 -3.17643384 37.85360546 -6.375 37.5625 C-9.95257808 37.24350602 -13.40474529 37 -17 37 C-17 36.34 -17 35.68 -17 35 C-16.01 35 -15.02 35 -14 35 C-14.04125 34.21625 -14.0825 33.4325 -14.125 32.625 C-14 30 -14 30 -12 28 C-11.35232207 25.42938689 -11.35232207 25.42938689 -11 23 C-10.67 23 -10.34 23 -10 23 C-10 26.96 -10 30.92 -10 35 C-6.7 35 -3.4 35 0 35 C0 23.45 0 11.9 0 0 Z " fill="#B4164C" transform="translate(72,99)"/>
<path d="M0 0 C0.99 0.99 1.98 1.98 3 3 C-4.87174494 7.701181 -13.08315086 7.84744149 -22 8 C-23.17344971 8.02271973 -23.17344971 8.02271973 -24.37060547 8.04589844 C-26.72632882 8.0850888 -29.0815041 8.11000003 -31.4375 8.125 C-32.17742187 8.12983398 -32.91734375 8.13466797 -33.6796875 8.13964844 C-38.87754675 8.12245325 -38.87754675 8.12245325 -40 7 C-41.68183948 6.76712992 -43.3712416 6.58735834 -45.0625 6.4375 C-45.98160156 6.35371094 -46.90070313 6.26992187 -47.84765625 6.18359375 C-48.91306641 6.09271484 -48.91306641 6.09271484 -50 6 C-50 5.67 -50 5.34 -50 5 C-44.68833136 3.67208284 -39.24118425 3.25293858 -34 5 C-22.37792612 5.74783387 -12.02925755 4.90652223 -1 1 C-0.67 0.67 -0.34 0.34 0 0 Z " fill="#DCDCDC" transform="translate(144,212)"/>
<path d="M0 0 C0 0.33 0 0.66 0 1 C-1.45635371 1.22174933 -2.91522956 1.42698698 -4.375 1.625 C-5.18710938 1.74101562 -5.99921875 1.85703125 -6.8359375 1.9765625 C-7.55007812 1.98429688 -8.26421875 1.99203125 -9 2 C-9.66 1.34 -10.32 0.68 -11 0 C-13.43252661 -0.46162427 -13.43252661 -0.46162427 -16.125 -0.625 C-17.03507812 -0.69976562 -17.94515625 -0.77453125 -18.8828125 -0.8515625 C-19.93082031 -0.92503906 -19.93082031 -0.92503906 -21 -1 C-21 -0.01 -21 0.98 -21 2 C-23.64 1.67 -26.28 1.34 -29 1 C-29 0.01 -29 -0.98 -29 -2 C-34.28 -2 -39.56 -2 -45 -2 C-45 -2.33 -45 -2.66 -45 -3 C-30.5569365 -5.40717725 -13.83458822 -5.00399999 0 0 Z " fill="#EE5085" transform="translate(141,13)"/>
<path d="M0 0 C3.93846154 4.30769231 3.93846154 4.30769231 4.25 7.8125 C4.1675 8.534375 4.085 9.25625 4 10 C4.66 10 5.32 10 6 10 C6 9.34 6 8.68 6 8 C7.65 8 9.3 8 11 8 C9.98408579 13.46864457 8.92908943 18.76390013 7 24 C5 23 5 23 4.20629883 21.20581055 C3.39760578 18.70278831 2.59447618 16.19902348 1.8125 13.6875 C1.52697266 12.81931641 1.24144531 11.95113281 0.94726562 11.05664062 C0.68236328 10.21681641 0.41746094 9.37699219 0.14453125 8.51171875 C-0.09934326 7.74303467 -0.34321777 6.97435059 -0.59448242 6.18237305 C-1.04134232 3.77750815 -0.76521047 2.30020764 0 0 Z " fill="#C61F57" transform="translate(125,96)"/>
<path d="M0 0 C0.33 0 0.66 0 1 0 C1 7.92 1 15.84 1 24 C0.67 24 0.34 24 0 24 C-0.33 21.69 -0.66 19.38 -1 17 C-3.35953094 19.35953094 -3.49141413 20.77895617 -4 24 C-5.65 24 -7.3 24 -9 24 C-6.80148049 15.63019764 -3.50929804 7.88172441 0 0 Z " fill="#B02856" transform="translate(62,110)"/>
<path d="M0 0 C1.051875 0.30744141 1.051875 0.30744141 2.125 0.62109375 C6.6117795 1.89519282 10.98073648 3.10990895 15.625 3.625 C19 4 19 4 20 5 C33.64838074 7.59615938 48.59724219 6.97825594 62.0390625 3.65625 C64.80807508 3.04253745 67.17751949 2.87409009 70 3 C61.02735023 8.98176651 48.78144568 8.56491344 38.375 8.5 C37.67944 8.49956696 36.98388 8.49913391 36.26724243 8.49868774 C9.42051138 8.40741294 9.42051138 8.40741294 1.01953125 1.33203125 C0.68308594 0.89246094 0.34664063 0.45289063 0 0 Z " fill="#BC1850" transform="translate(74,207)"/>
<path d="M0 0 C7.79870106 1.29978351 14.06126522 4.26646758 21 8 C21 8.33 21 8.66 21 9 C18.36 9.33 15.72 9.66 13 10 C12.67 8.68 12.34 7.36 12 6 C12 7.32 12 8.64 12 10 C9.03 10 6.06 10 3 10 C2.875 4.25 2.875 4.25 4 2 C2.68 1.34 1.36 0.68 0 0 Z " fill="#E9306F" transform="translate(141,14)"/>
<path d="M0 0 C0.66 0.33 1.32 0.66 2 1 C1.01 2.485 1.01 2.485 0 4 C-0.66 3.67 -1.32 3.34 -2 3 C-2.33 3.99 -2.66 4.98 -3 6 C-6.0625 7.1875 -6.0625 7.1875 -9 8 C-9 8.66 -9 9.32 -9 10 C-14.007138 14.36376273 -20.368957 16.7904689 -27 17 C-27.66 16.34 -28.32 15.68 -29 15 C-28.28457031 14.72027344 -27.56914062 14.44054687 -26.83203125 14.15234375 C-17.50180275 10.39852607 -7.93088177 6.29132448 0 0 Z " fill="#D3D1D2" transform="translate(172,196)"/>
<path d="M0 0 C0.33 0.66 0.66 1.32 1 2 C1.66 2.33 2.32 2.66 3 3 C2.34 3 1.68 3 1 3 C2.84188612 5.05270463 2.84188612 5.05270463 5 6 C4.40075776 10.19469571 3.42500059 14.00999834 2 18 C-0.91308822 16.54345589 -1.05452316 14.64612352 -2.125 11.625 C-2.47820312 10.64789063 -2.83140625 9.67078125 -3.1953125 8.6640625 C-4 6 -4 6 -4 3 C-2.68 2.67 -1.36 2.34 0 2 C0 1.34 0 0.68 0 0 Z " fill="#CB1F59" transform="translate(174,102)"/>
<path d="M0 0 C1.99996498 1.65168612 2.91796488 2.52102077 3.36328125 5.12109375 C3.34652344 5.88550781 3.32976563 6.64992188 3.3125 7.4375 C3.30863281 8.19933594 3.30476563 8.96117188 3.30078125 9.74609375 C2.96496315 12.26254883 2.4094914 13.88810425 1 16 C-2.125 16.75 -2.125 16.75 -5 17 C-6.31831625 13.04505124 -5.27915298 11.69818482 -3.625 7.9375 C-3.16351562 6.87402344 -2.70203125 5.81054688 -2.2265625 4.71484375 C-1.51096033 3.13094722 -0.77727919 1.55455838 0 0 Z " fill="#E7306E" transform="translate(21,64)"/>
<path d="M0 0 C1.57043101 0.01330874 3.14079971 0.03717648 4.7109375 0.0703125 C5.51273438 0.07933594 6.31453125 0.08835937 7.140625 0.09765625 C9.12252273 0.12125027 11.10426731 0.15712185 13.0859375 0.1953125 C13.0859375 1.1853125 13.0859375 2.1753125 13.0859375 3.1953125 C16.0559375 3.6903125 16.0559375 3.6903125 19.0859375 4.1953125 C19.0859375 4.5253125 19.0859375 4.8553125 19.0859375 5.1953125 C3.57807441 5.47005811 3.57807441 5.47005811 -3.9140625 4.1953125 C-4.5740625 3.5353125 -5.2340625 2.8753125 -5.9140625 2.1953125 C-3.9140625 0.1953125 -3.9140625 0.1953125 0 0 Z " fill="#EB2B6C" transform="translate(98.9140625,10.8046875)"/>
<path d="M0 0 C3.63 0 7.26 0 11 0 C11.33 0.99 11.66 1.98 12 3 C11.01 3.33 10.02 3.66 9 4 C8.67 3.34 8.34 2.68 8 2 C5.69 1.67 3.38 1.34 1 1 C1 14.53 1 28.06 1 42 C3.64 42 6.28 42 9 42 C9 42.33 9 42.66 9 43 C6.03 43 3.06 43 0 43 C0 28.81 0 14.62 0 0 Z " fill="#F0D8E2" transform="translate(153,91)"/>
<path d="M0 0 C2.34914492 2.34914492 2.73140357 3.95679446 3.625 7.125 C3.88539062 8.03507812 4.14578125 8.94515625 4.4140625 9.8828125 C4.70410156 10.93082031 4.70410156 10.93082031 5 12 C4.01 12 3.02 12 2 12 C1.01 13.485 1.01 13.485 0 15 C-0.33 14.34 -0.66 13.68 -1 13 C-1.33 13.66 -1.66 14.32 -2 15 C-2.99 15 -3.98 15 -5 15 C-1.92482916 4.44191344 -1.92482916 4.44191344 0 0 Z " fill="#B32D5A" transform="translate(112,94)"/>
<path d="M0 0 C0.66 0 1.32 0 2 0 C3.24832991 3.74498972 2.58733198 6.11059635 2 10 C1.92276077 12.41434873 1.89197653 14.83053207 1.90234375 17.24609375 C1.90446617 18.23005882 1.90446617 18.23005882 1.90663147 19.23390198 C1.91216969 21.30181702 1.92470998 23.36961842 1.9375 25.4375 C1.94252301 26.85090988 1.9470845 28.26432148 1.95117188 29.67773438 C1.96211874 33.11852568 1.97933962 36.55925172 2 40 C1.34 40 0.68 40 0 40 C0 26.8 0 13.6 0 0 Z " fill="#CC1855" transform="translate(198,94)"/>
<path d="M0 0 C1.90401138 1.90401138 2.93520439 3.33425686 3.19921875 6.046875 C3.1886578 8.03233273 3.09915043 10.0169914 3 12 C3.66 12.33 4.32 12.66 5 13 C5.09038099 18.15171623 4.84681133 22.91913204 4 28 C3.67 28 3.34 28 3 28 C2.80664062 26.96101563 2.61328125 25.92203125 2.4140625 24.8515625 C2.28862061 24.18012207 2.16317871 23.50868164 2.03393555 22.81689453 C1.76062937 21.35197342 1.48866313 19.88680171 1.21801758 18.42138672 C0.30790758 13.52513605 -0.70550192 8.66492102 -1.86328125 3.8203125 C-1.90839844 3.21960938 -1.95351562 2.61890625 -2 2 C-1.34 1.34 -0.68 0.68 0 0 Z " fill="#EAE5E7" transform="translate(212,76)"/>
<path d="M0 0 C3 2 3 2 3.49243164 3.95532227 C3.57545532 5.12405884 3.57545532 5.12405884 3.66015625 6.31640625 C3.73169922 7.16267578 3.80324219 8.00894531 3.87695312 8.88085938 C3.93818359 9.76580078 3.99941406 10.65074219 4.0625 11.5625 C4.19081452 13.31443789 4.32710755 15.0658159 4.47265625 16.81640625 C4.52687744 17.59443604 4.58109863 18.37246582 4.63696289 19.17407227 C4.75676514 19.77662842 4.87656738 20.37918457 5 21 C5.66 21.33 6.32 21.66 7 22 C6.34 22.33 5.68 22.66 5 23 C4.01 22.67 3.02 22.34 2 22 C-0.66538129 14.84555549 -0.19068684 7.54272394 0 0 Z " fill="#ECEDED" transform="translate(8,130)"/>
<path d="M0 0 C2.78765765 2.5303354 4.67463495 5.39339801 6.6875 8.5625 C7.62142578 10.01849609 7.62142578 10.01849609 8.57421875 11.50390625 C10 14 10 14 10 16 C9.01 16.33 8.02 16.66 7 17 C4 13.25 4 13.25 4 11 C2.35 11.33 0.7 11.66 -1 12 C-0.73958333 10.046875 -0.47916667 8.09375 -0.21875 6.140625 C0.06777357 3.69541605 0.06777357 3.69541605 0 0 Z " fill="#EA2567" transform="translate(193,48)"/>
<path d="M0 0 C0.66 0.33 1.32 0.66 2 1 C1.175 1.433125 0.35 1.86625 -0.5 2.3125 C-1.325 2.869375 -2.15 3.42625 -3 4 C-3 4.99 -3 5.98 -3 7 C-5.77042109 9.77042109 -7.76533805 9.39796106 -11.625 9.625 C-12.81351562 9.69976562 -14.00203125 9.77453125 -15.2265625 9.8515625 C-16.14179687 9.90054687 -17.05703125 9.94953125 -18 10 C-15.21636835 6.57073515 -11.35463104 5.05106498 -7.4375 3.25 C-6.75236328 2.92128906 -6.06722656 2.59257812 -5.36132812 2.25390625 C-3.60357879 1.43626819 -1.80367886 0.71060349 0 0 Z " fill="#E95285" transform="translate(77,15)"/>
<path d="M0 0 C1.43336511 2.76068547 2.62343897 5.52076009 3.69140625 8.44140625 C3.99626953 9.27220703 4.30113281 10.10300781 4.61523438 10.95898438 C4.92783203 11.81814453 5.24042969 12.67730469 5.5625 13.5625 C5.87896484 14.42552734 6.19542969 15.28855469 6.52148438 16.17773438 C7.71613722 19.44210424 8.90069256 22.70207767 10 26 C9.01 26.33 8.02 26.66 7 27 C7 25.35 7 23.7 7 22 C6.34 22 5.68 22 5 22 C4.87625 21.360625 4.7525 20.72125 4.625 20.0625 C4.41875 19.381875 4.2125 18.70125 4 18 C3.34 17.67 2.68 17.34 2 17 C0.03052586 11.44413776 -0.21203451 5.83094895 0 0 Z " fill="#D5CED1" transform="translate(11,134)"/>
<path d="M0 0 C0.33 0.99 0.66 1.98 1 3 C0.34 3 -0.32 3 -1 3 C-1.268125 3.969375 -1.53625 4.93875 -1.8125 5.9375 C-2.204375 6.948125 -2.59625 7.95875 -3 9 C-3.99 9.33 -4.98 9.66 -6 10 C-6 10.66 -6 11.32 -6 12 C-10 14 -14 16 -18 18 C-12 12 -6 6 0 0 Z " fill="#CFC2C7" transform="translate(192,178)"/>
<path d="M0 0 C-3.31061877 3.00206493 -5.55324754 3.38418463 -9.97265625 3.3984375 C-11.11927734 3.40230469 -12.26589844 3.40617188 -13.44726562 3.41015625 C-14.64029297 3.39855469 -15.83332031 3.38695312 -17.0625 3.375 C-18.25939453 3.38660156 -19.45628906 3.39820313 -20.68945312 3.41015625 C-22.40745117 3.40435547 -22.40745117 3.40435547 -24.16015625 3.3984375 C-25.20824463 3.39505371 -26.25633301 3.39166992 -27.33618164 3.38818359 C-30.30913985 2.95495075 -31.19873523 2.34098554 -33 0 C-32.34515625 0.00523682 -31.6903125 0.01047363 -31.015625 0.01586914 C-28.01042667 0.036827 -25.00524379 0.0497195 -22 0.0625 C-20.97003906 0.07087891 -19.94007812 0.07925781 -18.87890625 0.08789062 C-14.32448747 0.10239514 -9.8900672 0.06941809 -5.375 -0.56640625 C-2 -1 -2 -1 0 0 Z " fill="#E9E9E9" transform="translate(132,219)"/>
<path d="M0 0 C0.99 0 1.98 0 3 0 C3 1.32 3 2.64 3 4 C3.99 4 4.98 4 6 4 C6.66 2.68 7.32 1.36 8 0 C8.33 0.99 8.66 1.98 9 3 C11.31 3.33 13.62 3.66 16 4 C16.33 3.34 16.66 2.68 17 2 C17 2.99 17 3.98 17 5 C8.17751293 5.84831606 -0.19127807 6.04865737 -9 5 C-9 4.67 -9 4.34 -9 4 C-6.03 4 -3.06 4 0 4 C0 2.68 0 1.36 0 0 Z " fill="#B61A4F" transform="translate(163,130)"/>
<path d="M0 0 C5.26170694 1.41167747 8.72171358 3.74850232 13 7 C12.67 7.66 12.34 8.32 12 9 C7.97007218 8.44687265 3.97977076 7.8441938 0 7 C0 4.66666667 0 2.33333333 0 0 Z " fill="#EA306F" transform="translate(162,23)"/>
<path d="M0 0 C0.66 0 1.32 0 2 0 C2 1.98 2 3.96 2 6 C-3.75 9 -3.75 9 -6 9 C-6.66 10.32 -7.32 11.64 -8 13 C-8.33 12.34 -8.66 11.68 -9 11 C-8.0625 8.375 -8.0625 8.375 -7 6 C-6.34 6 -5.68 6 -5 6 C-4.67 4.68 -4.34 3.36 -4 2 C-3.01 2.33 -2.02 2.66 -1 3 C-0.67 2.01 -0.34 1.02 0 0 Z " fill="#F4EEF0" transform="translate(198,175)"/>
<path d="M0 0 C0.33 0 0.66 0 1 0 C1.25 3.25 1.25 3.25 1 7 C-0.875 9.125 -0.875 9.125 -3 11 C-3.72159424 12.64363134 -4.39351421 14.31050386 -5 16 C-5.66 16.99 -6.32 17.98 -7 19 C-8.32 19 -9.64 19 -11 19 C-9.2546501 15.28998923 -7.10427938 11.84804888 -4.9375 8.375 C-2.33767727 4.26237409 -2.33767727 4.26237409 0 0 Z " fill="#D0CACC" transform="translate(204,159)"/>
<path d="M0 0 C0.33 0 0.66 0 1 0 C1 6.93 1 13.86 1 21 C0.67 21 0.34 21 0 21 C-0.33 19.02 -0.66 17.04 -1 15 C-1.99 15 -2.98 15 -4 15 C-4.59720137 9.17728663 -2.528243 5.0790596 0 0 Z " fill="#B3144A" transform="translate(187,111)"/>
<path d="M0 0 C1.0635774 3.19073219 0.89019883 3.93375957 0 7 C0 7.66 0 8.32 0 9 C0 10.66666667 0 12.33333333 0 14 C-1.98 14.33 -3.96 14.66 -6 15 C-5.09276387 10.31261335 -4.0452733 5.65806256 -3 1 C-2.01 1.33 -1.02 1.66 0 2 C0 1.34 0 0.68 0 0 Z " fill="#FAFBFD" transform="translate(179,118)"/>
<path d="M0 0 C1.32 0.66 2.64 1.32 4 2 C3.34 3.32 2.68 4.64 2 6 C2.66 6 3.32 6 4 6 C4 6.66 4 7.32 4 8 C2.02 8.99 2.02 8.99 0 10 C0 9.01 0 8.02 0 7 C-0.6496875 7.99 -0.6496875 7.99 -1.3125 9 C-1.869375 9.66 -2.42625 10.32 -3 11 C-3.99 11 -4.98 11 -6 11 C-4.54955729 6.89041233 -2.48889248 3.56741255 0 0 Z " fill="#E93672" transform="translate(28,53)"/>
<path d="M0 0 C1.051875 0.30744141 1.051875 0.30744141 2.125 0.62109375 C6.6117795 1.89519282 10.98073648 3.10990895 15.625 3.625 C19 4 19 4 20 5 C21.67884238 5.3931648 23.36850045 5.74085452 25.0625 6.0625 C25.98160156 6.23910156 26.90070313 6.41570312 27.84765625 6.59765625 C28.55792969 6.73042969 29.26820312 6.86320313 30 7 C30 7.33 30 7.66 30 8 C23.65816867 8.27064332 18.29452127 7.35131766 12.1875 5.6875 C11.34251953 5.47416016 10.49753906 5.26082031 9.62695312 5.04101562 C8.40975586 4.71713867 8.40975586 4.71713867 7.16796875 4.38671875 C6.07391724 4.09607544 6.07391724 4.09607544 4.95776367 3.79956055 C2.74426176 2.89555522 1.56444525 1.78384352 0 0 Z " fill="#C52259" transform="translate(74,207)"/>
<path d="M0 0 C0.99 0 1.98 0 3 0 C2.67 1.98 2.34 3.96 2 6 C1.01 6 0.02 6 -1 6 C-2.12880057 9.31114834 -3.21302675 12.58978257 -4 16 C-4.66 15.67 -5.32 15.34 -6 15 C-6.33 16.32 -6.66 17.64 -7 19 C-8.3274855 15.01754349 -6.99907829 12.55210457 -5.5625 8.8125 C-5.19801758 7.83120117 -5.19801758 7.83120117 -4.82617188 6.83007812 C-4.2256707 5.21696714 -3.61390797 3.6080565 -3 2 C-2.34 2 -1.68 2 -1 2 C-0.67 1.34 -0.34 0.68 0 0 Z " fill="#BB2457" transform="translate(147,106)"/>
<path d="M0 0 C0.66 0.33 1.32 0.66 2 1 C2 1.66 2 2.32 2 3 C2.66 3 3.32 3 4 3 C4 3.66 4 4.32 4 5 C4.66 5 5.32 5 6 5 C7.4783226 7.95664519 7.06032783 10.74229737 7 14 C6.34 14 5.68 14 5 14 C3.96692229 12.23628182 2.94887951 10.46374967 1.9375 8.6875 C1.36902344 7.70136719 0.80054688 6.71523438 0.21484375 5.69921875 C-1 3 -1 3 0 0 Z " fill="#F1E9EC" transform="translate(201,56)"/>
<path d="M0 0 C0.33 0.66 0.66 1.32 1 2 C1.99 1.67 2.98 1.34 4 1 C3.00956295 5.83628305 2.04301154 10.47618873 0 15 C-2.60329886 11.09505171 -1.80930803 8.37202275 -1 4 C-0.69830934 2.65915264 -0.38482319 1.3193938 0 0 Z " fill="#C01E54" transform="translate(94,105)"/>
<path d="M0 0 C3.04231515 4.0564202 4.65284147 6.96620135 5 12 C3.625 15.5 3.625 15.5 2 18 C1.67 18 1.34 18 1 18 C0.67 12.06 0.34 6.12 0 0 Z " fill="#B31C4F" transform="translate(162,110)"/>
<path d="M0 0 C-2.55466059 3.0247891 -5.37016273 4.20620611 -9 5.6875 C-10.5778125 6.34298828 -10.5778125 6.34298828 -12.1875 7.01171875 C-15 8 -15 8 -18 8 C-18 7.34 -18 6.68 -18 6 C-17.28972656 5.73445312 -16.57945312 5.46890625 -15.84765625 5.1953125 C-14.92855469 4.84210938 -14.00945312 4.48890625 -13.0625 4.125 C-11.68771484 3.60292969 -11.68771484 3.60292969 -10.28515625 3.0703125 C-7.85058944 2.2180914 -7.85058944 2.2180914 -7 0 C-4.0262656 -1.09036928 -3.11592499 -1.03864166 0 0 Z " fill="#C61E57" transform="translate(162,202)"/>
<path d="M0 0 C2.52845528 1.26422764 2.76422764 2.52845528 4 5 C3.67 5.99 3.34 6.98 3 8 C2.34 8 1.68 8 1 8 C1 8.99 1 9.98 1 11 C0.34 11 -0.32 11 -1 11 C-1.33 11.66 -1.66 12.32 -2 13 C-3.46845421 7.52667068 -2.44038726 4.88077452 0 0 Z " fill="#C22057" transform="translate(182,123)"/>
<path d="M0 0 C1.625 1.5 1.625 1.5 3 4 C2.65955497 6.83163803 1.86771089 9.25986036 1 12 C-0.65 12 -2.3 12 -4 12 C-3.52309796 10.37433394 -3.04340334 8.74948689 -2.5625 7.125 C-2.29566406 6.22007812 -2.02882812 5.31515625 -1.75390625 4.3828125 C-1 2 -1 2 0 0 Z " fill="#B82E5C" transform="translate(57,122)"/>
<path d="M0 0 C0.99 0.33 1.98 0.66 3 1 C-3.59090909 6 -3.59090909 6 -7 6 C-7 6.66 -7 7.32 -7 8 C-8.65 8 -10.3 8 -12 8 C-12 7.01 -12 6.02 -12 5 C-10.82630859 4.58427734 -10.82630859 4.58427734 -9.62890625 4.16015625 C-8.61699219 3.79792969 -7.60507813 3.43570313 -6.5625 3.0625 C-5.55316406 2.70285156 -4.54382813 2.34320313 -3.50390625 1.97265625 C-1.09686255 1.23122361 -1.09686255 1.23122361 0 0 Z " fill="#E8E7E8" transform="translate(158,208)"/>
<path d="M0 0 C0.66 0.33 1.32 0.66 2 1 C1.01 2.485 1.01 2.485 0 4 C-0.66 3.67 -1.32 3.34 -2 3 C-2.33 3.99 -2.66 4.98 -3 6 C-6.0625 7.1875 -6.0625 7.1875 -9 8 C-9 8.66 -9 9.32 -9 10 C-11.64 10.33 -14.28 10.66 -17 11 C-13.77446181 8.45393354 -10.37640066 6.41523546 -6.8125 4.375 C-3.19826368 2.4751087 -3.19826368 2.4751087 0 0 Z " fill="#C8C0C2" transform="translate(172,196)"/>
<path d="M0 0 C-0.66 0.66 -1.32 1.32 -2 2 C-1.34 2.33 -0.68 2.66 0 3 C0.33 2.34 0.66 1.68 1 1 C1.99 1.33 2.98 1.66 4 2 C3.34 3.65 2.68 5.3 2 7 C-1.91211733 5.84414715 -4.8745041 4.64465038 -8 2 C-4.77208445 -0.1519437 -3.71599191 -0.20086443 0 0 Z " fill="#EE1E64" transform="translate(60,192)"/>
<path d="M0 0 C1.91385532 2.87078299 2.96432952 5.33411656 4.125 8.5625 C4.47820312 9.53316406 4.83140625 10.50382812 5.1953125 11.50390625 C6 14 6 14 6 16 C5.34 16 4.68 16 4 16 C4 15.34 4 14.68 4 14 C3.01 13.67 2.02 13.34 1 13 C0.63901937 11.02206479 0.28638652 9.04260427 -0.0625 7.0625 C-0.25972656 5.96035156 -0.45695312 4.85820313 -0.66015625 3.72265625 C-0.77230469 2.82417969 -0.88445312 1.92570312 -1 1 C-0.67 0.67 -0.34 0.34 0 0 Z " fill="#BB2A5B" transform="translate(120,115)"/>
<path d="M0 0 C0 0.33 0 0.66 0 1 C-8.72630608 1.09744014 -17.33003296 1.16711095 -26 0 C-26 -0.33 -26 -0.66 -26 -1 C-17.21470018 -3.19632496 -8.76434718 -1.49635196 0 0 Z " fill="#D1D1D1" transform="translate(120,218)"/>
<path d="M0 0 C0.66 0 1.32 0 2 0 C3.59162079 5.57067277 4.20674944 10.21101581 4 16 C3.67 16 3.34 16 3 16 C3 14.35 3 12.7 3 11 C2.34 11 1.68 11 1 11 C-1.08997373 7.60379269 -1.2632246 4.94836905 -1 1 C-0.67 0.67 -0.34 0.34 0 0 Z " fill="#EC1A61" transform="translate(210,85)"/>
<path d="M0 0 C1.32 0 2.64 0 4 0 C4 1.32 4 2.64 4 4 C4.99 3.67 5.98 3.34 7 3 C6.67 4.98 6.34 6.96 6 9 C5.01 9.33 4.02 9.66 3 10 C3 8.68 3 7.36 3 6 C2.01 5.67 1.02 5.34 0 5 C0 3.35 0 1.7 0 0 Z " fill="#EF2468" transform="translate(25,160)"/>
<path d="M0 0 C0.33 0 0.66 0 1 0 C1.33 9.24 1.66 18.48 2 28 C1.01 27.34 0.02 26.68 -1 26 C-1.2487793 23.38623047 -1.2487793 23.38623047 -1.07421875 20.1171875 C-1.01943359 18.95058594 -0.96464844 17.78398438 -0.90820312 16.58203125 C-0.83537109 15.35871094 -0.76253906 14.13539062 -0.6875 12.875 C-0.62626953 11.64394531 -0.56503906 10.41289063 -0.50195312 9.14453125 C-0.34831344 6.09537445 -0.18040849 3.04767126 0 0 Z " fill="#DEB8C5" transform="translate(9,104)"/>
<path d="M0 0 C1.65 0 3.3 0 5 0 C5.33 1.98 5.66 3.96 6 6 C3 8 3 8 0.8125 7.625 C0.214375 7.41875 -0.38375 7.2125 -1 7 C-0.34 7 0.32 7 1 7 C0.67 4.69 0.34 2.38 0 0 Z " fill="#E22A68" transform="translate(97,88)"/>
<path d="M0 0 C13.365 0.495 13.365 0.495 27 1 C27 1.33 27 1.66 27 2 C13.635 2.495 13.635 2.495 0 3 C0 2.01 0 1.02 0 0 Z " fill="#BFA1AC" transform="translate(93,214)"/>
<path d="M0 0 C0.66 0 1.32 0 2 0 C2.16682272 4.92127034 2.24828052 8.50343896 0 13 C-2.475 12.01 -2.475 12.01 -5 11 C-5 10.34 -5 9.68 -5 9 C-4.0409375 8.1028125 -4.0409375 8.1028125 -3.0625 7.1875 C-0.74825544 4.73299819 -0.36608527 3.29476739 0 0 Z " fill="#D7205E" transform="translate(180,96)"/>
<path d="M0 0 C0.33 1.32 0.66 2.64 1 4 C3.31 4.66 5.62 5.32 8 6 C8 6.66 8 7.32 8 8 C-3.52164009 4.92482916 -3.52164009 4.92482916 -9 3 C-9 2.67 -9 2.34 -9 2 C-3.375 0 -3.375 0 0 0 Z " fill="#F5EBF0" transform="translate(144,9)"/>
<path d="M0 0 C-1.79145011 2.25297623 -2.773263 2.94980117 -5.62890625 3.58203125 C-6.59699219 3.65808594 -7.56507813 3.73414063 -8.5625 3.8125 C-10.01849609 3.94591797 -10.01849609 3.94591797 -11.50390625 4.08203125 C-14 4 -14 4 -16 2 C-13.89829344 1.46932659 -11.79352402 0.95077143 -9.6875 0.4375 C-7.92986328 0.00244141 -7.92986328 0.00244141 -6.13671875 -0.44140625 C-3 -1 -3 -1 0 0 Z " fill="#C4C0C1" transform="translate(144,212)"/>
<path d="M0 0 C0.66 0 1.32 0 2 0 C2.185625 0.9590625 2.185625 0.9590625 2.375 1.9375 C2.684375 2.9584375 2.684375 2.9584375 3 4 C3.66 4.33 4.32 4.66 5 5 C5.5625 6.875 5.5625 6.875 6 9 C6.33 9.99 6.66 10.98 7 12 C5.1875 11.8125 5.1875 11.8125 3 11 C0.07099943 7.33874929 -0.32215416 4.6175429 0 0 Z " fill="#EAE6E7" transform="translate(16,156)"/>
<path d="M0 0 C1.51400391 0.01740234 1.51400391 0.01740234 3.05859375 0.03515625 C4.07050781 0.04417969 5.08242187 0.05320312 6.125 0.0625 C7.29869141 0.07990234 7.29869141 0.07990234 8.49609375 0.09765625 C8.49609375 1.08765625 8.49609375 2.07765625 8.49609375 3.09765625 C6.18609375 3.09765625 3.87609375 3.09765625 1.49609375 3.09765625 C1.16609375 3.75765625 0.83609375 4.41765625 0.49609375 5.09765625 C-0.49390625 5.09765625 -1.48390625 5.09765625 -2.50390625 5.09765625 C-3.06640625 3.16015625 -3.06640625 3.16015625 -3.50390625 1.09765625 C-2.50390625 0.09765625 -2.50390625 0.09765625 0 0 Z " fill="#E82E6D" transform="translate(59.50390625,87.90234375)"/>
<path d="M0 0 C0.99 0.33 1.98 0.66 3 1 C-0.96 4.96 -4.92 8.92 -9 13 C-9.33 12.01 -9.66 11.02 -10 10 C-6.66666667 6.66666667 -3.33333333 3.33333333 0 0 Z " fill="#F2E5EA" transform="translate(43,33)"/>
<path d="M0 0 C1.32 0 2.64 0 4 0 C4.66 2.31 5.32 4.62 6 7 C4.68 7.33 3.36 7.66 2 8 C2 7.01 2 6.02 2 5 C1.01 5.33 0.02 5.66 -1 6 C-0.67 4.02 -0.34 2.04 0 0 Z " fill="#BE275A" transform="translate(114,107)"/>
<path d="M0 0 C0.66 0.66 1.32 1.32 2 2 C0.85845641 3.83600745 -0.28834316 5.66874805 -1.4375 7.5 C-2.07558594 8.5209375 -2.71367187 9.541875 -3.37109375 10.59375 C-3.90863281 11.3878125 -4.44617188 12.181875 -5 13 C-5.33 13 -5.66 13 -6 13 C-5.67 10.69 -5.34 8.38 -5 6 C-5.66 5.67 -6.32 5.34 -7 5 C-6.38125 4.896875 -5.7625 4.79375 -5.125 4.6875 C-2.63473516 4.12474627 -2.63473516 4.12474627 -1 1 C-0.67 0.67 -0.34 0.34 0 0 Z " fill="#F3E1E7" transform="translate(27,51)"/>
<path d="M0 0 C0.66 0 1.32 0 2 0 C2.1953125 6.0546875 2.1953125 6.0546875 2 8 C1.34 8.66 0.68 9.32 0 10 C-0.99 10 -1.98 10 -3 10 C-3.33 8.35 -3.66 6.7 -4 5 C-3.67 5.66 -3.34 6.32 -3 7 C-2.34 7 -1.68 7 -1 7 C-0.67 4.69 -0.34 2.38 0 0 Z " fill="#D21A58" transform="translate(142,126)"/>
<path d="M0 0 C4 2 8 4 12 6 C12 6.66 12 7.32 12 8 C13.32 8.66 14.64 9.32 16 10 C15.01 10.495 15.01 10.495 14 11 C11.50390625 9.70703125 11.50390625 9.70703125 8.5625 7.8125 C7.59441406 7.20019531 6.62632813 6.58789062 5.62890625 5.95703125 C3.18158199 4.1351747 1.65741186 2.53387373 0 0 Z " fill="#C7245B" transform="translate(48,192)"/>
<path d="M0 0 C6.75 1.875 6.75 1.875 9 3 C9 3.66 9 4.32 9 5 C7.4375 5.75 7.4375 5.75 5 6 C2.49713591 4.86915563 0.32992278 3.47860484 -2 2 C-1.34 1.34 -0.68 0.68 0 0 Z " fill="#F8E6ED" transform="translate(159,18)"/>
<path d="M0 0 C1.65 0.33 3.3 0.66 5 1 C2.65890118 2.56073255 0.43666597 3.86373867 -2.0625 5.125 C-3.10083984 5.65480469 -3.10083984 5.65480469 -4.16015625 6.1953125 C-6 7 -6 7 -8 7 C-8 6.01 -8 5.02 -8 4 C-7.01 4 -6.02 4 -5 4 C-5 3.34 -5 2.68 -5 2 C-3.35 2 -1.7 2 0 2 C0 1.34 0 0.68 0 0 Z " fill="#F5F1F3" transform="translate(72,14)"/>
<path d="M0 0 C-0.99 0.33 -1.98 0.66 -3 1 C-3.33 1.99 -3.66 2.98 -4 4 C-12.03571429 3.0625 -12.03571429 3.0625 -16 2 C-14.27507022 1.46530198 -12.544802 0.94780825 -10.8125 0.4375 C-9.36810547 0.00244141 -9.36810547 0.00244141 -7.89453125 -0.44140625 C-4.87247412 -1.02461026 -2.94070045 -0.81178385 0 0 Z " fill="#E95285" transform="translate(96,12)"/>
<path d="M0 0 C0.99 0.33 1.98 0.66 3 1 C3.33 2.98 3.66 4.96 4 7 C2.35 7.66 0.7 8.32 -1 9 C-0.67 6.03 -0.34 3.06 0 0 Z " fill="#F7FCFD" transform="translate(167,108)"/>
<path d="M0 0 C0 3 0 3 -1.75 5.04296875 C-2.4925 5.75066406 -3.235 6.45835937 -4 7.1875 C-4.7425 7.90292969 -5.485 8.61835938 -6.25 9.35546875 C-6.8275 9.89816406 -7.405 10.44085938 -8 11 C-8.33 10.01 -8.66 9.02 -9 8 C-8.01 7.67 -7.02 7.34 -6 7 C-5.87625 6.38125 -5.7525 5.7625 -5.625 5.125 C-5 3 -5 3 -2.4375 1.25 C-1.2309375 0.63125 -1.2309375 0.63125 0 0 Z " fill="#CC1452" transform="translate(190,178)"/>
<path d="M0 0 C0.33 0 0.66 0 1 0 C1.34615998 5.65394631 0.43425238 9.03006806 -2 14 C-3.32 14 -4.64 14 -6 14 C-6 13.34 -6 12.68 -6 12 C-5.01 12 -4.02 12 -3 12 C-3.061875 10.824375 -3.061875 10.824375 -3.125 9.625 C-3 7 -3 7 -1 5 C-0.35232207 2.42938689 -0.35232207 2.42938689 0 0 Z " fill="#C31C54" transform="translate(61,122)"/>
<path d="M0 0 C0.66 0 1.32 0 2 0 C3.625 2 3.625 2 5 4 C4.34 5.32 3.68 6.64 3 8 C2.34 8 1.68 8 1 8 C-0.42944945 5.64561267 -1.08661261 4.51967567 -0.625 1.75 C-0.41875 1.1725 -0.2125 0.595 0 0 Z " fill="#CB1B56" transform="translate(168,96)"/>
<path d="M0 0 C0.66 0.33 1.32 0.66 2 1 C2 1.99 2 2.98 2 4 C4.97 4 7.94 4 11 4 C9 6 9 6 6.6171875 6.1953125 C5.71226563 6.17210937 4.80734375 6.14890625 3.875 6.125 C2.50988281 6.09792969 2.50988281 6.09792969 1.1171875 6.0703125 C0.41851562 6.04710937 -0.28015625 6.02390625 -1 6 C-1.33 5.01 -1.66 4.02 -2 3 C-1.34 2.01 -0.68 1.02 0 0 Z " fill="#A91C4C" transform="translate(44,130)"/>
<path d="M0 0 C0 0.99 0 1.98 0 3 C-6.435 3.495 -6.435 3.495 -13 4 C-8.85308536 -0.14691464 -5.71695515 0 0 0 Z " fill="#EA3C76" transform="translate(72,21)"/>
<path d="M0 0 C4.8 3.32307692 4.8 3.32307692 5.8125 6.75 C5.874375 7.4925 5.93625 8.235 6 9 C5.01 9 4.02 9 3 9 C2.34 8.01 1.68 7.02 1 6 C1.33 5.67 1.66 5.34 2 5 C1.34 4.34 0.68 3.68 0 3 C0 2.01 0 1.02 0 0 Z " fill="#D7D2D3" transform="translate(42,188)"/>
<path d="M0 0 C2.61047801 1.305239 2.68066423 2.35826574 3.625 5.0625 C3.88539062 5.79597656 4.14578125 6.52945313 4.4140625 7.28515625 C4.60742188 7.85105469 4.80078125 8.41695312 5 9 C3.68 9 2.36 9 1 9 C0.63877119 7.68942607 0.28619689 6.37646376 -0.0625 5.0625 C-0.35833984 3.96615234 -0.35833984 3.96615234 -0.66015625 2.84765625 C-0.77230469 2.23792969 -0.88445313 1.62820312 -1 1 C-0.67 0.67 -0.34 0.34 0 0 Z " fill="#C12459" transform="translate(42,95)"/>
<path d="M0 0 C0.66 0 1.32 0 2 0 C2 0.66 2 1.32 2 2 C2.66 2 3.32 2 4 2 C4 1.34 4 0.68 4 0 C4.99 0.33 5.98 0.66 7 1 C6.67 1.66 6.34 2.32 6 3 C4.35 3 2.7 3 1 3 C1 4.32 1 5.64 1 7 C0.01 6.67 -0.98 6.34 -2 6 C-1.34 4.02 -0.68 2.04 0 0 Z " fill="#E82D6C" transform="translate(26,88)"/>
<path d="M0 0 C0.66 0.33 1.32 0.66 2 1 C2 1.99 2 2.98 2 4 C-1.465 5.485 -1.465 5.485 -5 7 C-5.66 6.34 -6.32 5.68 -7 5 C-4.69 3.35 -2.38 1.7 0 0 Z " fill="#ED457D" transform="translate(57,25)"/>
<path d="M0 0 C10.625 2.55 10.625 2.55 15 5 C13.00045254 5.04254356 10.99958364 5.04080783 9 5 C8.67 4.67 8.34 4.34 8 4 C6.65252916 3.76924918 5.29622435 3.58846937 3.9375 3.4375 C2.638125 3.293125 1.33875 3.14875 0 3 C0 2.01 0 1.02 0 0 Z " fill="#E8E7E7" transform="translate(56,205)"/>
<path d="M0 0 C0.33 0.66 0.66 1.32 1 2 C2.98 2 4.96 2 7 2 C6.01 2.33 5.02 2.66 4 3 C4 3.66 4 4.32 4 5 C4.99 5.33 5.98 5.66 7 6 C4.69 6 2.38 6 0 6 C-0.38218767 4.34385343 -0.71395102 2.67542976 -1 1 C-0.67 0.67 -0.34 0.34 0 0 Z " fill="#F2EAEE" transform="translate(46,128)"/>
<path d="M0 0 C2.475 0.99 2.475 0.99 5 2 C5 3.32 5 4.64 5 6 C5.66 6 6.32 6 7 6 C7 6.99 7 7.98 7 9 C7.66 9 8.32 9 9 9 C9 9.66 9 10.32 9 11 C5.357335 9.78577833 4.84263015 8.66800557 2.8125 5.5 C2.28269531 4.6853125 1.75289062 3.870625 1.20703125 3.03125 C0 1 0 1 0 0 Z " fill="#D12E65" transform="translate(23,164)"/>
<path d="M0 0 C0.66 0.33 1.32 0.66 2 1 C1.49357808 5.35522853 0.61588503 8.44239635 -2 12 C-2.66 12 -3.32 12 -4 12 C-2.66666667 8 -1.33333333 4 0 0 Z " fill="#D3C9CC" transform="translate(209,147)"/>
<path d="M0 0 C0.66 0.33 1.32 0.66 2 1 C1.34 2.98 0.68 4.96 0 7 C-0.66 7 -1.32 7 -2 7 C-2.66 8.32 -3.32 9.64 -4 11 C-4.33 10.34 -4.66 9.68 -5 9 C-4.0625 6.375 -4.0625 6.375 -3 4 C-2.34 4 -1.68 4 -1 4 C-0.67 2.68 -0.34 1.36 0 0 Z " fill="#DEE2E1" transform="translate(194,177)"/>
<path d="M0 0 C0.66 0.33 1.32 0.66 2 1 C2 2.65 2 4.3 2 6 C-0.31 6 -2.62 6 -5 6 C-3.35 4.02 -1.7 2.04 0 0 Z " fill="#ED437C" transform="translate(37,42)"/>
<path d="M0 0 C0.93065133 2.60582371 1.14917407 3.64198224 0.0625 6.25 C-0.4634375 7.11625 -0.4634375 7.11625 -1 8 C-2.32 7.34 -3.64 6.68 -5 6 C-3.35 4.02 -1.7 2.04 0 0 Z " fill="#EB437B" transform="translate(47,32)"/>
<path d="M0 0 C0.6875 1.75 0.6875 1.75 1 4 C-0.1875 6.25 -0.1875 6.25 -2 8 C-3.32 8 -4.64 8 -6 8 C-4.55746343 4.63408134 -2.66735273 2.48952921 0 0 Z " fill="#D7D3D4" transform="translate(199,170)"/>
<path d="M0 0 C0.99 0 1.98 0 3 0 C2.67 1.98 2.34 3.96 2 6 C-1.63 5.67 -5.26 5.34 -9 5 C-9 4.67 -9 4.34 -9 4 C-6.03 4 -3.06 4 0 4 C0 2.68 0 1.36 0 0 Z " fill="#B41048" transform="translate(163,130)"/>
<path d="M0 0 C0.66 0.66 1.32 1.32 2 2 C1.9765625 4.1640625 1.9765625 4.1640625 1.625 6.625 C1.51414062 7.44226563 1.40328125 8.25953125 1.2890625 9.1015625 C1.19367188 9.72804688 1.09828125 10.35453125 1 11 C-1.30441554 7.54337669 -1.25860135 6.05142119 -1 2 C-0.67 1.34 -0.34 0.68 0 0 Z " fill="#BB2356" transform="translate(112,94)"/>
<path d="M0 0 C0.66 0.66 1.32 1.32 2 2 C1.63318342 4.93453261 1.13562754 5.86437246 -1 8 C-1.33 8.99 -1.66 9.98 -2 11 C-2.66 11 -3.32 11 -4 11 C-3.5247412 9.35303396 -3.04468109 7.70745272 -2.5625 6.0625 C-2.29566406 5.14597656 -2.02882812 4.22945313 -1.75390625 3.28515625 C-1 1 -1 1 0 0 Z " fill="#BB305F" transform="translate(150,93)"/>
<path d="M0 0 C0.66 0 1.32 0 2 0 C1.7834375 1.485 1.7834375 1.485 1.5625 3 C0.99074821 6.99409465 0.49180166 10.99532937 0 15 C-0.33 15 -0.66 15 -1 15 C-1.02703381 13.06257659 -1.04641125 11.12504521 -1.0625 9.1875 C-1.07410156 8.10855469 -1.08570313 7.02960938 -1.09765625 5.91796875 C-1 3 -1 3 0 0 Z " fill="#E7D9DE" transform="translate(10,89)"/>
<path d="M0 0 C0.99 0.33 1.98 0.66 3 1 C3 1.66 3 2.32 3 3 C3.639375 3.28875 4.27875 3.5775 4.9375 3.875 C7 5 7 5 8 7 C5.25851328 6.62952882 3.41406801 6.31412056 1.1875 4.625 C0 3 0 3 0 0 Z " fill="#E92F6E" transform="translate(176,32)"/>
<path d="M0 0 C1.66611905 -0.042721 3.33382885 -0.04063832 5 0 C5.33 0.33 5.66 0.66 6 1 C7.68183948 1.23287008 9.3712416 1.41264166 11.0625 1.5625 C11.98160156 1.64628906 12.90070313 1.73007813 13.84765625 1.81640625 C14.91306641 1.90728516 14.91306641 1.90728516 16 2 C16 2.33 16 2.66 16 3 C14.58456585 3.19658808 13.16755969 3.38187546 11.75 3.5625 C10.96109375 3.66691406 10.1721875 3.77132812 9.359375 3.87890625 C6.99467126 4.00027349 5.2488963 3.69633257 3 3 C3 2.34 3 1.68 3 1 C2.01 0.67 1.02 0.34 0 0 Z " fill="#DFDFDF" transform="translate(88,216)"/>
<path d="M0 0 C2.31 0 4.62 0 7 0 C5.37660195 1.70884005 3.70680947 3.37446717 2 5 C1.34 5 0.68 5 0 5 C0 3.35 0 1.7 0 0 Z " fill="#CC1E59" transform="translate(169,193)"/>
<path d="M0 0 C1.31223496 3.93670488 0.24296256 6.12488144 -1 10 C-2.32 8.35 -3.64 6.7 -5 5 C-4.34 5 -3.68 5 -3 5 C-2.5359375 4.0409375 -2.5359375 4.0409375 -2.0625 3.0625 C-1 1 -1 1 0 0 Z " fill="#F4ECF0" transform="translate(107,104)"/>
<path d="M0 0 C0.66 0.33 1.32 0.66 2 1 C1.01 4.3 0.02 7.6 -1 11 C-3 7 -3 7 -3 5 C-2.34 5 -1.68 5 -1 5 C-0.67 3.35 -0.34 1.7 0 0 Z " fill="#EDE3E6" transform="translate(16,69)"/>
<path d="M0 0 C6.625 0.75 6.625 0.75 10 3 C8.54364629 3.22174933 7.08477044 3.42698698 5.625 3.625 C4.81289062 3.74101562 4.00078125 3.85703125 3.1640625 3.9765625 C2.44992188 3.98429688 1.73578125 3.99203125 1 4 C0.34 3.34 -0.32 2.68 -1 2 C-0.67 1.34 -0.34 0.68 0 0 Z " fill="#EE5387" transform="translate(131,11)"/>
<path d="M0 0 C0.66 0 1.32 0 2 0 C2 2.64 2 5.28 2 8 C-0.86177057 9.43088528 -2.93375773 8.59991697 -6 8 C-6 7.67 -6 7.34 -6 7 C-4.02 7 -2.04 7 0 7 C0 4.69 0 2.38 0 0 Z " fill="#BE1C52" transform="translate(72,128)"/>
<path d="M0 0 C0 0.33 0 0.66 0 1 C-4.40914783 2.10228696 -8.48382401 2.07654536 -13 2 C-7.89905865 -1.40062757 -5.96067238 -0.86525889 0 0 Z " fill="#F7EFF2" transform="translate(88,12)"/>
<path d="M0 0 C4.95 0.99 4.95 0.99 10 2 C9.34 2.66 8.68 3.32 8 4 C4.375 3.625 4.375 3.625 1 3 C0.67 2.01 0.34 1.02 0 0 Z " fill="#C2B6BA" transform="translate(82,211)"/>
<path d="M0 0 C0.66 0.33 1.32 0.66 2 1 C-0.475 4.465 -0.475 4.465 -3 8 C-3.66 7.67 -4.32 7.34 -5 7 C-4.67 5.35 -4.34 3.7 -4 2 C-3.01 2 -2.02 2 -1 2 C-0.67 1.34 -0.34 0.68 0 0 Z " fill="#D01C59" transform="translate(197,168)"/>
<path d="M0 0 C0.99 0 1.98 0 3 0 C2.8125 2.875 2.8125 2.875 2 6 C-0.5625 7.375 -0.5625 7.375 -3 8 C-2.34 6.68 -1.68 5.36 -1 4 C-0.67 4.33 -0.34 4.66 0 5 C0 3.35 0 1.7 0 0 Z " fill="#DB1A5B" transform="translate(203,153)"/>
<path d="M0 0 C0.98726527 2.66561622 1.0275526 3.90126985 0.25 6.6875 C-1 9 -1 9 -4 10 C-2.8905928 6.51329166 -1.73662334 3.22515763 0 0 Z " fill="#E54078" transform="translate(21,64)"/>
<path d="M0 0 C0.33 0.66 0.66 1.32 1 2 C-2.47325181 3.1577506 -5.36067448 3.06866652 -9 3 C-5.92807025 0.26939578 -4.09590633 -0.34132553 0 0 Z " fill="#CDCFCF" transform="translate(130,215)"/>
<path d="M0 0 C2.66666667 1.33333333 5.33333333 2.66666667 8 4 C7 5 7 5 4.4375 5.0625 C3.2309375 5.0315625 3.2309375 5.0315625 2 5 C0 1.125 0 1.125 0 0 Z " fill="#EFF0F0" transform="translate(41,194)"/>
<path d="M0 0 C1.98 0.99 1.98 0.99 4 2 C3.34 3.98 2.68 5.96 2 8 C1.34 8 0.68 8 0 8 C0 5.36 0 2.72 0 0 Z " fill="#F6FBFB" transform="translate(81,102)"/>
<path d="M0 0 C1.65 0 3.3 0 5 0 C5.33 1.65 5.66 3.3 6 5 C5.67 4.34 5.34 3.68 5 3 C3.35 3.66 1.7 4.32 0 5 C0 3.35 0 1.7 0 0 Z " fill="#EF256A" transform="translate(97,88)"/>
<path d="M0 0 C0.33 0.66 0.66 1.32 1 2 C-2.3125 3.625 -2.3125 3.625 -6 5 C-6.99 4.34 -7.98 3.68 -9 3 C-6.03 2.01 -3.06 1.02 0 0 Z " fill="#C4B5BA" transform="translate(153,207)"/>
<path d="M0 0 C0.33 0.66 0.66 1.32 1 2 C1.66 2 2.32 2 3 2 C3.33 1.34 3.66 0.68 4 0 C3.67 1.65 3.34 3.3 3 5 C1.68 5 0.36 5 -1 5 C-0.67 3.35 -0.34 1.7 0 0 Z " fill="#D0215C" transform="translate(110,115)"/>
<path d="M0 0 C2.94586829 4.41880243 3.0985616 6.67767339 3 12 C0.79680323 7.59360646 -0.10924981 5.02549129 0 0 Z " fill="#E04277" transform="translate(10,96)"/>
<path d="M0 0 C3.3 0 6.6 0 10 0 C10.33 0.99 10.66 1.98 11 3 C10.01 3.33 9.02 3.66 8 4 C7.67 3.34 7.34 2.68 7 2 C4.67843403 1.59270772 2.3431213 1.25561323 0 1 C0 0.67 0 0.34 0 0 Z " fill="#F9E5ED" transform="translate(154,91)"/>
<path d="M0 0 C1.09658936 3.28976808 0.79953138 4.71303767 0 8 C-0.66 8 -1.32 8 -2 8 C-2.6875 5.6875 -2.6875 5.6875 -3 3 C-1.5625 1.1875 -1.5625 1.1875 0 0 Z " fill="#F12B6E" transform="translate(23,67)"/>
<path d="M0 0 C-0.33 0.66 -0.66 1.32 -1 2 C-3.64860427 2.59355614 -6.29197322 2.74209269 -9 3 C-6.38997624 -0.48003168 -4.1689578 -0.27793052 0 0 Z " fill="#E7E7E7" transform="translate(142,216)"/>
<path d="M0 0 C0.33 0.99 0.66 1.98 1 3 C0.01 3.99 -0.98 4.98 -2 6 C-2.99 5.67 -3.98 5.34 -5 5 C-5 4.34 -5 3.68 -5 3 C-3.35 2.67 -1.7 2.34 0 2 C0 1.34 0 0.68 0 0 Z " fill="#E5E3E4" transform="translate(186,188)"/>
<path d="M0 0 C2.2477975 2.05233685 3.0022242 3.00667261 4 6 C2.02 6.99 2.02 6.99 0 8 C0 5.36 0 2.72 0 0 Z " fill="#EC417B" transform="translate(193,48)"/>
<path d="M0 0 C-4.75 4 -4.75 4 -7 4 C-7.33 3.01 -7.66 2.02 -8 1 C-5.29120665 -0.35439668 -2.99066732 -0.06501451 0 0 Z " fill="#F9ECF1" transform="translate(64,21)"/>
</svg>
