<svg width="22" height="22" viewBox="0 0 22 22" fill="none" xmlns="http://www.w3.org/2000/svg">
<path fill-rule="evenodd" clip-rule="evenodd" d="M16.136 1.39682C16.2215 1.34665 16.2962 1.28003 16.3557 1.20082C16.4153 1.12161 16.4586 1.03137 16.4831 0.935331C16.5076 0.839289 16.5128 0.739345 16.4984 0.641277C16.4841 0.543208 16.4504 0.44896 16.3994 0.363981C16.3484 0.279002 16.281 0.204977 16.2012 0.146186C16.1214 0.0873948 16.0308 0.0450033 15.9345 0.021462C15.8382 -0.00207933 15.7382 -0.00630354 15.6403 0.0090337C15.5424 0.0243709 15.4485 0.0589654 15.364 0.110817L13.02 1.51782C12.3115 1.17815 11.5357 1.00247 10.75 1.00382C9.96467 1.00262 9.18915 1.1783 8.481 1.51782L6.136 0.110817C5.96556 0.0107802 5.76253 -0.0179422 5.57103 0.0308931C5.37953 0.0797284 5.21504 0.202174 5.11333 0.371615C5.01161 0.541056 4.98088 0.743797 5.02782 0.93577C5.07476 1.12774 5.19557 1.29343 5.364 1.39682L7.127 2.45482C6.6122 2.9445 6.20246 3.53385 5.92275 4.18697C5.64304 4.84009 5.4992 5.54332 5.5 6.25382V6.54382C5.243 6.67882 5 6.83782 4.775 7.01682C4.70437 6.94776 4.62076 6.89338 4.529 6.85682L2.529 6.05682C2.3454 5.98761 2.14198 5.99311 1.96239 6.07214C1.7828 6.15117 1.64133 6.29743 1.56832 6.47956C1.49531 6.66168 1.49658 6.86516 1.57186 7.04636C1.64714 7.22756 1.79043 7.37204 1.971 7.44882L3.743 8.15782C3.273 8.88782 3 9.75782 3 10.6908V12.0028H0.75C0.551088 12.0028 0.360322 12.0818 0.21967 12.2225C0.0790177 12.3631 0 12.5539 0 12.7528C0 12.9517 0.0790177 13.1425 0.21967 13.2831C0.360322 13.4238 0.551088 13.5028 0.75 13.5028H3V13.7538C3 15.0338 3.31 16.2398 3.859 17.3038L1.971 18.0578C1.87953 18.0945 1.79618 18.1488 1.7257 18.2176C1.65522 18.2865 1.59899 18.3685 1.56022 18.4591C1.52145 18.5497 1.5009 18.647 1.49975 18.7455C1.4986 18.8441 1.51686 18.9418 1.5535 19.0333C1.59014 19.1248 1.64443 19.2081 1.71329 19.2786C1.78214 19.3491 1.8642 19.4053 1.95478 19.4441C2.04537 19.4829 2.1427 19.5034 2.24122 19.5046C2.33975 19.5057 2.43753 19.4875 2.529 19.4508L4.529 18.6508C4.58152 18.6299 4.63151 18.603 4.678 18.5708C5.40307 19.4863 6.32601 20.2258 7.37761 20.7337C8.4292 21.2417 9.58215 21.505 10.75 21.5038C11.9179 21.5048 13.0709 21.2414 14.1225 20.7333C15.1741 20.2251 16.097 19.4855 16.822 18.5698C16.8688 18.6021 16.9191 18.6289 16.972 18.6498L18.972 19.4498C19.1548 19.5149 19.3556 19.5067 19.5325 19.4268C19.7093 19.347 19.8483 19.2017 19.9202 19.0215C19.9922 18.8413 19.9915 18.6403 19.9184 18.4606C19.8453 18.2809 19.7053 18.1365 19.528 18.0578L17.642 17.3028C18.2078 16.2055 18.502 14.9884 18.5 13.7538V13.5038H20.75C20.9489 13.5038 21.1397 13.4248 21.2803 13.2841C21.421 13.1435 21.5 12.9527 21.5 12.7538C21.5 12.5549 21.421 12.3641 21.2803 12.2235C21.1397 12.0828 20.9489 12.0038 20.75 12.0038H18.5V10.6918C18.5 9.75782 18.227 8.88882 17.757 8.15882L19.528 7.44982C19.7053 7.37111 19.8453 7.22674 19.9184 7.04704C19.9915 6.86734 19.9922 6.66628 19.9202 6.48611C19.8483 6.30594 19.7093 6.16066 19.5325 6.0808C19.3556 6.00093 19.1548 5.9927 18.972 6.05782L16.972 6.85782C16.8799 6.89427 16.7959 6.94865 16.725 7.01782C16.4984 6.83815 16.2557 6.67981 16 6.54482V6.25382C16.0009 5.54315 15.8572 4.83973 15.5774 4.18643C15.2977 3.53312 14.8879 2.94361 14.373 2.45382L16.136 1.39682ZM4.5 13.7538V10.6918C4.49987 10.2731 4.58224 9.85851 4.7424 9.47167C4.90257 9.08482 5.13739 8.73333 5.43345 8.43727C5.72951 8.14121 6.081 7.90639 6.46785 7.74622C6.8547 7.58606 7.26931 7.50369 7.688 7.50382H13.812C14.6575 7.50382 15.4684 7.8397 16.0663 8.43756C16.6641 9.03543 17 9.84631 17 10.6918V13.7538C17.0001 15.2817 16.4406 16.7567 15.4272 17.9001C14.4138 19.0435 13.0168 19.7763 11.5 19.9598V13.7538C11.5 13.5549 11.421 13.3641 11.2803 13.2235C11.1397 13.0828 10.9489 13.0038 10.75 13.0038C10.5511 13.0038 10.3603 13.0828 10.2197 13.2235C10.079 13.3641 10 13.5549 10 13.7538V19.9598C8.48321 19.7763 7.08616 19.0435 6.07279 17.9001C5.05943 16.7567 4.49993 15.2817 4.5 13.7538ZM10.75 2.50382C11.71 2.50373 12.6335 2.87182 13.3302 3.53226C14.0269 4.1927 14.4438 5.09519 14.495 6.05382C14.2692 6.02071 14.0412 6.004 13.813 6.00382H7.686C7.45775 6.00376 7.2298 6.02047 7.004 6.05382C7.05521 5.09501 7.47225 4.19238 8.16918 3.53191C8.86611 2.87145 9.78983 2.50347 10.75 2.50382Z" fill="#23C55E"/>
</svg>
