<svg width="200" height="153" viewBox="0 0 200 153" fill="none" xmlns="http://www.w3.org/2000/svg">
<g clip-path="url(#clip0_1053_1744)">
<path d="M140.297 69.0551L119.247 63.7885V49.3038L124.018 55.9345L129.153 48.9824C123.649 40.4751 116.857 32.8743 109.021 26.4516C106.084 24.023 102.82 20.3448 99.6632 20.303C96.6728 20.2612 93.2581 23.8707 90.6772 26.5081C84.1397 33.1935 77.9063 40.1886 71.7056 47.1986C71.4568 47.7365 71.336 48.3248 71.3528 48.9173C71.3697 49.5098 71.5237 50.0903 71.8027 50.6133C73.0002 52.5245 74.3273 54.3514 75.7747 56.0811L80.6775 49.1309V63.6291C74.1265 65.4026 67.5639 67.2231 60.9577 68.8944C60.5416 68.8953 60.1314 68.7956 59.762 68.6039C59.3927 68.4122 59.0751 68.1341 58.8364 67.7933C56.4983 63.9939 54.3597 60.0753 52.4294 56.0534C51.2387 53.1998 50.7448 50.1036 50.9886 47.0212C51.2324 43.9387 52.2069 40.9586 53.8314 38.3277C61.8838 22.7537 74.6897 10.1511 90.3905 2.34904C93.2561 0.823693 96.4496 0.0176432 99.6959 0.00028638C102.942 -0.0170705 106.144 0.754785 109.026 2.2494C124.958 10.0705 137.934 22.8331 146.018 38.633C147.746 41.6282 148.677 45.0163 148.722 48.4738C148.767 51.9313 147.925 55.3426 146.275 58.3817C144.317 62.1262 142.151 65.76 140.297 69.0551ZM113.346 21.2492C111.937 26.8071 116.527 28.0721 119.247 31.3171V21.2492H113.346Z" fill="white"/>
<path d="M61.9497 78.4746C86.4724 71.3676 112.505 71.3431 137.041 78.4039C128.722 88.6667 117.815 96.5247 105.447 101.167C101.6 102.273 97.5198 102.278 93.6703 101.181C81.2748 96.5505 70.3292 88.7153 61.9497 78.4746Z" fill="white"/>
<path d="M107.169 38.0136C106.588 37.8197 105.96 37.8249 105.382 38.0283C104.805 38.2317 104.312 38.6217 103.981 39.1366C102.851 40.438 102.032 41.98 101.586 43.6453C101.091 45.2775 100.715 46.9443 100.288 48.5951C100.137 48.4826 99.942 48.3167 99.7285 48.1785C99.4381 47.9265 99.0803 47.7649 98.6991 47.7136C98.318 47.6624 97.9302 47.7236 97.5835 47.8899C97.2067 48.0791 96.8941 48.3752 96.6846 48.741C96.475 49.1068 96.3778 49.5262 96.4052 49.9469C96.409 50.6277 96.5876 51.2961 96.9239 51.8881C97.2603 52.4801 97.743 52.9757 98.3259 53.3275C98.6622 53.4946 99.0148 53.6264 99.3782 53.7209C99.3831 53.8049 99.3753 53.8892 99.3551 53.971C98.6981 55.7747 98.1054 57.6061 97.3527 59.3706C96.6677 60.8914 95.4632 62.1182 93.9554 62.8309C93.242 63.2347 92.4293 63.4293 91.6104 63.3921C90.8014 63.4217 89.9918 63.3517 89.1998 63.1839C88.1093 62.8554 87.15 62.1915 86.4583 61.2867C85.7666 60.3818 85.3777 59.282 85.3467 58.1435C85.2861 57.104 85.4999 56.0668 85.9665 55.1359C86.4331 54.205 87.1363 53.4131 88.0054 52.8396C88.0683 52.8079 88.1244 52.7642 88.1704 52.7109C88.2164 52.6576 88.2514 52.5957 88.2735 52.5289C88.2956 52.462 88.3043 52.3915 88.2991 52.3213C88.2939 52.251 88.2749 52.1825 88.2433 52.1196L88.2137 52.0682C87.7734 50.9446 87.378 49.8029 86.9705 48.6671C86.9166 48.5391 86.8874 48.4021 86.8844 48.2634C86.8222 46.7791 86.8887 45.2923 87.083 43.8195C87.4253 41.9696 88.2494 40.2426 89.4722 38.8129C90.6951 37.3831 92.2734 36.3012 94.0479 35.6763C95.381 35.1427 96.7871 34.8137 98.2186 34.7005C98.3052 34.7039 98.3906 34.6793 98.4622 34.6304C99.0079 34.0757 99.6598 34.3328 100.276 34.3977C100.826 34.4549 101.373 34.5642 101.917 34.669C102.727 34.9071 103.505 35.2448 104.232 35.6744C105.188 36.1552 106.061 36.7883 106.815 37.5488C106.946 37.6931 107.065 37.8486 107.169 38.0136Z" fill="white"/>
<path d="M110.355 54.5746L107.925 53.1385L110.805 52.0849C110.79 52.0432 110.761 51.9512 110.724 51.8638C110.353 50.9922 110.358 50.9986 111.046 50.3969C111.243 50.228 111.412 50.0294 111.548 49.8081C111.615 49.7232 111.665 49.6259 111.695 49.5218C111.724 49.4177 111.733 49.3088 111.72 49.2013C111.707 49.0938 111.674 48.9899 111.621 48.8955C111.568 48.8011 111.497 48.718 111.412 48.651L111.299 48.5758C110.675 48.176 110.164 47.6227 109.815 46.9688C109.466 46.315 109.291 45.5826 109.306 44.8417C109.309 44.5985 109.223 44.3627 109.065 44.1783C108.906 43.9938 108.686 43.8734 108.445 43.8395C107.419 43.6483 106.362 43.6938 105.356 43.9726C105.188 44.0066 105.022 44.0497 104.835 44.0921C105.395 43.0315 107.112 42.5127 109.271 42.7949L108.863 40.4615L108.958 40.4242L109.895 43.3169C109.928 43.502 109.99 43.681 110.076 43.8479C110.655 44.6449 111.259 45.4228 111.847 46.2141C112.588 47.2182 113.385 48.1927 114.041 49.2463C114.543 49.9861 114.832 50.8499 114.876 51.7432C114.92 52.6364 114.718 53.5245 114.291 54.3104C113.42 56.2054 112.238 57.9409 110.792 59.4446C110.626 59.6225 110.478 59.8163 110.35 60.0231C109.716 61.0157 108.748 61.7498 107.621 62.0937C106.443 62.4374 105.305 62.9064 104.227 63.4924C103.906 63.5995 103.573 63.6643 103.235 63.6853C103.435 62.1197 103.852 60.5896 104.473 59.1386C104.896 58.2162 105.53 58.0085 106.681 58.139C107.433 58.2376 108.195 58.2217 108.942 58.0921C109.387 58.0191 109.785 57.7732 110.05 57.408C110.315 57.0427 110.425 56.5876 110.356 56.1418C110.342 55.6076 110.355 55.0728 110.355 54.5746Z" fill="white"/>
<path d="M106.242 46.7966L105.126 46.7072C106.21 45.8444 107.527 45.3234 108.908 45.2108C108.881 45.3152 108.843 45.4166 108.796 45.5135C108.405 45.989 108.18 46.5781 108.153 47.1926C108.153 47.3053 108.131 47.4169 108.089 47.5212C108.046 47.6254 107.983 47.7202 107.903 47.8001C107.824 47.8801 107.729 47.9436 107.625 47.987C107.521 48.0304 107.41 48.053 107.297 48.0533H107.272C106.761 48.07 106.509 47.712 106.372 47.2652C106.325 47.118 106.287 46.9599 106.242 46.7966Z" fill="white"/>
<path d="M26.613 147.605C25.2194 149.295 23.4673 150.653 21.4836 151.582C19.5 152.511 17.3345 152.987 15.1443 152.975C13.1991 153.091 11.2507 152.808 9.41886 152.144C7.587 151.479 5.91036 150.447 4.49198 149.111C3.0736 147.775 1.94344 146.163 1.17096 144.374C0.398484 142.585 0 140.657 0 138.708C0 136.759 0.398484 134.831 1.17096 133.042C1.94344 131.253 3.0736 129.641 4.49198 128.305C5.91036 126.969 7.587 125.937 9.41886 125.272C11.2507 124.608 13.1991 124.325 15.1443 124.441C16.9587 124.414 18.7579 124.776 20.42 125.505C22.082 126.233 23.5682 127.31 24.7778 128.663C25.9873 130.016 26.8921 131.612 27.4307 133.345C27.9694 135.078 28.1293 136.906 27.8998 138.707V141.339H8.42903C8.67264 142.83 9.44644 144.184 10.6081 145.15C11.7698 146.117 13.2413 146.631 14.7521 146.599C15.9464 146.591 17.1197 146.285 18.165 145.707C19.2104 145.13 20.0946 144.3 20.737 143.293L26.613 147.605ZM19.5102 135.63C19.5255 134.969 19.4105 134.311 19.1717 133.695C18.9329 133.078 18.575 132.514 18.1183 132.036C17.6617 131.558 17.1154 131.174 16.5105 130.907C15.9056 130.64 15.254 130.495 14.5929 130.479C14.5149 130.477 14.4371 130.477 14.3595 130.479C12.8929 130.388 11.4494 130.877 10.3401 131.841C9.23077 132.804 8.54443 134.165 8.42903 135.63H19.5102Z" fill="white"/>
<path d="M32.9851 125.11H41.0431V128.8H41.1575C41.963 127.422 43.1276 126.288 44.5271 125.52C45.9266 124.752 47.5084 124.378 49.1036 124.439C50.8313 124.3 52.5605 124.691 54.0601 125.56C55.5597 126.43 56.7582 127.736 57.4957 129.305C58.2828 127.726 59.524 126.42 61.0596 125.552C62.5952 124.685 64.3551 124.297 66.1132 124.437C73.4992 124.437 75.7392 129.638 75.7392 136.244V152.302H67.347V136.469C67.347 133.951 66.3985 131.825 63.6565 131.825C59.7911 131.825 58.5607 134.567 58.5607 137.925V152.304H50.1686V137.925C50.1686 135.908 50.278 131.825 46.4186 131.825C42.0527 131.825 41.3833 135.237 41.3833 138.764V152.304H32.9912L32.9851 125.11Z" fill="white"/>
<path d="M107.4 147.605C106.007 149.295 104.255 150.653 102.271 151.582C100.287 152.511 98.1219 152.987 95.9316 152.975C93.9864 153.091 92.0381 152.808 90.2062 152.144C88.3743 151.479 86.6977 150.447 85.2793 149.111C83.8609 147.775 82.7308 146.163 81.9583 144.374C81.1858 142.585 80.7874 140.657 80.7874 138.708C80.7874 136.759 81.1858 134.831 81.9583 133.042C82.7308 131.253 83.8609 129.641 85.2793 128.305C86.6977 126.969 88.3743 125.937 90.2062 125.272C92.0381 124.608 93.9864 124.325 95.9316 124.441C97.7458 124.414 99.5447 124.777 101.207 125.505C102.868 126.233 104.354 127.31 105.564 128.662C106.773 130.015 107.678 131.611 108.217 133.344C108.756 135.077 108.916 136.905 108.687 138.705V141.337H89.2164C89.4593 142.829 90.2328 144.183 91.3945 145.149C92.5562 146.116 94.0279 146.631 95.539 146.599C96.7333 146.591 97.9066 146.285 98.9521 145.707C99.9975 145.13 100.882 144.3 101.524 143.293L107.4 147.605ZM100.298 135.63C100.313 134.969 100.198 134.311 99.9591 133.695C99.7202 133.078 99.3623 132.514 98.9057 132.036C98.4491 131.558 97.9027 131.174 97.2978 130.907C96.6929 130.64 96.0414 130.495 95.3803 130.479C95.3026 130.477 95.2248 130.477 95.1468 130.479C93.6803 130.388 92.2368 130.877 91.1275 131.841C90.0181 132.804 89.3318 134.165 89.2164 135.63H100.298Z" fill="white"/>
<path d="M114.557 110H122.949V128.02H123.059C124.103 126.776 125.432 125.801 126.932 125.178C128.432 124.555 130.06 124.301 131.679 124.439C133.42 124.544 135.123 124.991 136.691 125.755C138.259 126.518 139.662 127.583 140.818 128.889C141.975 130.194 142.863 131.715 143.432 133.363C144.001 135.012 144.24 136.757 144.135 138.498C144.126 138.643 144.115 138.789 144.101 138.935C144.241 140.757 143.996 142.589 143.383 144.311C142.77 146.033 141.801 147.607 140.541 148.931C139.28 150.255 137.755 151.299 136.065 151.996C134.375 152.693 132.557 153.027 130.73 152.976C129.106 152.958 127.508 152.565 126.061 151.827C124.614 151.09 123.358 150.028 122.389 148.724H122.274V152.305H114.557V110ZM128.991 145.588C129.901 145.642 130.813 145.499 131.663 145.169C132.513 144.84 133.283 144.332 133.919 143.679C134.556 143.026 135.045 142.244 135.353 141.386C135.661 140.527 135.781 139.613 135.705 138.704C135.749 136.923 135.083 135.198 133.855 133.907C132.627 132.617 130.936 131.867 129.155 131.823C127.374 131.779 125.649 132.445 124.358 133.673C123.068 134.901 122.318 136.592 122.274 138.373C122.272 138.483 122.272 138.594 122.274 138.704C122.197 139.613 122.317 140.528 122.624 141.387C122.932 142.246 123.421 143.029 124.059 143.682C124.696 144.335 125.466 144.843 126.317 145.172C127.168 145.501 128.08 145.643 128.991 145.588Z" fill="white"/>
<path d="M174.759 147.605C173.365 149.295 171.612 150.654 169.628 151.582C167.644 152.511 165.478 152.987 163.288 152.975C161.343 153.091 159.394 152.808 157.562 152.144C155.731 151.479 154.054 150.447 152.636 149.111C151.217 147.775 150.087 146.163 149.315 144.374C148.542 142.585 148.144 140.657 148.144 138.708C148.144 136.759 148.542 134.831 149.315 133.042C150.087 131.253 151.217 129.641 152.636 128.305C154.054 126.969 155.731 125.937 157.562 125.272C159.394 124.608 161.343 124.325 163.288 124.441C165.102 124.414 166.901 124.777 168.563 125.505C170.225 126.233 171.711 127.31 172.921 128.663C174.13 130.016 175.035 131.613 175.574 133.345C176.112 135.078 176.272 136.907 176.043 138.707V141.339H156.573C156.816 142.831 157.59 144.184 158.751 145.151C159.913 146.117 161.385 146.631 162.896 146.599C164.09 146.591 165.263 146.285 166.309 145.707C167.354 145.13 168.239 144.3 168.881 143.293L174.759 147.605ZM167.654 135.63C167.669 134.969 167.554 134.311 167.315 133.694C167.075 133.077 166.717 132.513 166.26 132.035C165.803 131.557 165.256 131.173 164.651 130.906C164.045 130.639 163.393 130.494 162.732 130.479H162.504C161.037 130.388 159.593 130.877 158.484 131.84C157.374 132.804 156.688 134.165 156.573 135.63H167.654Z" fill="white"/>
<path d="M199.652 131.825H192.265V140.89C192.265 143.8 192.603 145.925 196.238 145.925C197.428 146.006 198.616 145.733 199.651 145.14V152.134C197.754 152.748 195.767 153.032 193.775 152.973C188.18 152.973 183.871 150.679 183.871 144.748V131.825H178.501V125.111H183.871V117.054H192.263V125.11H199.652V131.825Z" fill="white"/>
</g>
<defs>
<clipPath id="clip0_1053_1744">
<rect width="199.652" height="153" fill="white"/>
</clipPath>
</defs>
</svg>
