<svg width="268" height="185" viewBox="0 0 268 185" fill="none" xmlns="http://www.w3.org/2000/svg">
<path d="M174.471 69.0551L153.421 63.7885V49.3038L158.192 55.9345L163.327 48.9824C157.823 40.4751 151.032 32.8743 143.195 26.4516C140.258 24.023 136.994 20.3448 133.837 20.303C130.847 20.2612 127.432 23.8707 124.851 26.5081C118.314 33.1935 112.08 40.1886 105.88 47.1986C105.631 47.7365 105.51 48.3248 105.527 48.9173C105.544 49.5098 105.698 50.0903 105.977 50.6133C107.174 52.5245 108.501 54.3514 109.949 56.0811L114.852 49.1309V63.6291C108.301 65.4026 101.738 67.2231 95.1318 68.8944C94.7156 68.8953 94.3054 68.7956 93.9361 68.6039C93.5668 68.4122 93.2492 68.1341 93.0105 67.7933C90.6723 63.9939 88.5338 60.0753 86.6035 56.0534C85.4128 53.1998 84.9189 50.1036 85.1627 47.0212C85.4065 43.9387 86.381 40.9586 88.0055 38.3277C96.0578 22.7537 108.864 10.1511 124.565 2.34904C127.43 0.823693 130.624 0.0176432 133.87 0.00028638C137.116 -0.0170705 140.318 0.754785 143.2 2.2494C159.132 10.0705 172.108 22.8331 180.192 38.633C181.92 41.6282 182.851 45.0163 182.896 48.4738C182.941 51.9313 182.099 55.3426 180.449 58.3817C178.491 62.1262 176.325 65.76 174.471 69.0551ZM147.52 21.2492C146.111 26.8071 150.701 28.0721 153.421 31.3171V21.2492H147.52Z" fill="white"/>
<path d="M96.1238 78.4746C120.646 71.3676 146.679 71.3431 171.215 78.4039C162.896 88.6667 151.99 96.5247 139.621 101.167C135.774 102.273 131.694 102.278 127.844 101.181C115.449 96.5505 104.503 88.7153 96.1238 78.4746Z" fill="white"/>
<path d="M141.343 38.0136C140.762 37.8197 140.134 37.8249 139.556 38.0283C138.979 38.2317 138.486 38.6217 138.156 39.1366C137.025 40.438 136.206 41.98 135.76 43.6453C135.265 45.2775 134.889 46.9443 134.463 48.5951C134.311 48.4826 134.116 48.3167 133.903 48.1785C133.612 47.9265 133.254 47.7649 132.873 47.7136C132.492 47.6624 132.104 47.7236 131.758 47.8899C131.381 48.0791 131.068 48.3752 130.859 48.741C130.649 49.1068 130.552 49.5262 130.579 49.9469C130.583 50.6277 130.762 51.2961 131.098 51.8881C131.434 52.4801 131.917 52.9757 132.5 53.3275C132.836 53.4946 133.189 53.6264 133.552 53.7209C133.557 53.8049 133.549 53.8892 133.529 53.971C132.872 55.7747 132.28 57.6061 131.527 59.3706C130.842 60.8914 129.637 62.1182 128.129 62.8309C127.416 63.2347 126.603 63.4293 125.784 63.3921C124.975 63.4217 124.166 63.3517 123.374 63.1839C122.283 62.8554 121.324 62.1915 120.632 61.2867C119.941 60.3818 119.552 59.282 119.521 58.1435C119.46 57.104 119.674 56.0668 120.141 55.1359C120.607 54.205 121.31 53.4131 122.18 52.8396C122.242 52.8079 122.298 52.7642 122.344 52.7109C122.39 52.6576 122.425 52.5957 122.448 52.5289C122.47 52.462 122.478 52.3915 122.473 52.3213C122.468 52.251 122.449 52.1825 122.417 52.1196L122.388 52.0682C121.947 50.9446 121.552 49.8029 121.145 48.6671C121.091 48.5391 121.061 48.4021 121.058 48.2634C120.996 46.7791 121.063 45.2923 121.257 43.8195C121.599 41.9696 122.423 40.2426 123.646 38.8129C124.869 37.3831 126.447 36.3012 128.222 35.6763C129.555 35.1427 130.961 34.8137 132.393 34.7005C132.479 34.7039 132.565 34.6793 132.636 34.6304C133.182 34.0757 133.834 34.3328 134.45 34.3977C135.001 34.4549 135.547 34.5642 136.091 34.669C136.901 34.9071 137.679 35.2448 138.406 35.6744C139.363 36.1552 140.235 36.7883 140.989 37.5488C141.12 37.6931 141.239 37.8486 141.343 38.0136Z" fill="white"/>
<path d="M144.529 54.5746L142.099 53.1385L144.979 52.0849C144.964 52.0432 144.936 51.9512 144.898 51.8638C144.527 50.9922 144.532 50.9986 145.22 50.3969C145.417 50.228 145.587 50.0294 145.722 49.8081C145.789 49.7232 145.839 49.6259 145.869 49.5218C145.898 49.4177 145.907 49.3088 145.894 49.2013C145.881 49.0938 145.848 48.9899 145.795 48.8955C145.742 48.8011 145.671 48.718 145.586 48.651L145.473 48.5758C144.849 48.176 144.338 47.6227 143.989 46.9688C143.64 46.315 143.465 45.5826 143.48 44.8417C143.483 44.5985 143.397 44.3627 143.239 44.1783C143.08 43.9938 142.86 43.8734 142.619 43.8395C141.593 43.6483 140.536 43.6938 139.53 43.9726C139.362 44.0066 139.196 44.0497 139.009 44.0921C139.569 43.0315 141.286 42.5127 143.445 42.7949L143.037 40.4615L143.132 40.4242L144.069 43.3169C144.102 43.502 144.164 43.681 144.25 43.8479C144.829 44.6449 145.433 45.4228 146.021 46.2141C146.762 47.2182 147.56 48.1927 148.215 49.2463C148.717 49.9861 149.006 50.8499 149.05 51.7432C149.095 52.6364 148.892 53.5245 148.465 54.3104C147.594 56.2054 146.412 57.9409 144.966 59.4446C144.8 59.6225 144.652 59.8163 144.524 60.0231C143.89 61.0157 142.922 61.7498 141.795 62.0937C140.617 62.4374 139.479 62.9064 138.401 63.4924C138.08 63.5995 137.747 63.6643 137.409 63.6853C137.609 62.1197 138.026 60.5896 138.647 59.1386C139.07 58.2162 139.704 58.0085 140.855 58.139C141.607 58.2376 142.369 58.2217 143.116 58.0921C143.561 58.0191 143.959 57.7732 144.224 57.408C144.489 57.0427 144.599 56.5876 144.53 56.1418C144.516 55.6076 144.529 55.0728 144.529 54.5746Z" fill="white"/>
<path d="M140.416 46.7966L139.301 46.7072C140.385 45.8444 141.701 45.3234 143.082 45.2108C143.055 45.3152 143.017 45.4166 142.97 45.5135C142.58 45.989 142.354 46.5781 142.327 47.1926C142.327 47.3053 142.305 47.4169 142.263 47.5212C142.22 47.6254 142.157 47.7202 142.077 47.8001C141.998 47.8801 141.904 47.9436 141.8 47.987C141.696 48.0304 141.584 48.053 141.471 48.0533H141.446C140.935 48.07 140.683 47.712 140.546 47.2652C140.499 47.118 140.461 46.9599 140.416 46.7966Z" fill="white"/>
<path d="M47.7252 136.75V143.85H59.1752V150.45H47.7252V158.15H60.6752V165H39.1752V129.9H60.6752V136.75H47.7252ZM101.826 136.8C105.293 136.8 108.043 137.85 110.076 139.95C112.143 142.05 113.176 144.967 113.176 148.7V165H104.676V149.85C104.676 148.05 104.193 146.667 103.226 145.7C102.293 144.7 100.993 144.2 99.326 144.2C97.6593 144.2 96.3426 144.7 95.376 145.7C94.4426 146.667 93.976 148.05 93.976 149.85V165H85.476V149.85C85.476 148.05 84.9926 146.667 84.026 145.7C83.0926 144.7 81.7926 144.2 80.126 144.2C78.4593 144.2 77.1426 144.7 76.176 145.7C75.2426 146.667 74.776 148.05 74.776 149.85V165H66.226V137.1H74.776V140.6C75.6426 139.433 76.776 138.517 78.176 137.85C79.576 137.15 81.1593 136.8 82.926 136.8C85.026 136.8 86.8926 137.25 88.526 138.15C90.1926 139.05 91.4926 140.333 92.426 142C93.3926 140.467 94.7093 139.217 96.376 138.25C98.0426 137.283 99.8593 136.8 101.826 136.8ZM145.456 150.6C145.456 151.4 145.406 152.233 145.306 153.1H125.956C126.089 154.833 126.639 156.167 127.606 157.1C128.606 158 129.822 158.45 131.256 158.45C133.389 158.45 134.872 157.55 135.706 155.75H144.806C144.339 157.583 143.489 159.233 142.256 160.7C141.056 162.167 139.539 163.317 137.706 164.15C135.872 164.983 133.822 165.4 131.556 165.4C128.822 165.4 126.389 164.817 124.256 163.65C122.122 162.483 120.456 160.817 119.256 158.65C118.056 156.483 117.456 153.95 117.456 151.05C117.456 148.15 118.039 145.617 119.206 143.45C120.406 141.283 122.072 139.617 124.206 138.45C126.339 137.283 128.789 136.7 131.556 136.7C134.256 136.7 136.656 137.267 138.756 138.4C140.856 139.533 142.489 141.15 143.656 143.25C144.856 145.35 145.456 147.8 145.456 150.6ZM136.706 148.35C136.706 146.883 136.206 145.717 135.206 144.85C134.206 143.983 132.956 143.55 131.456 143.55C130.022 143.55 128.806 143.967 127.806 144.8C126.839 145.633 126.239 146.817 126.006 148.35H136.706ZM158.516 141.05C159.316 139.75 160.466 138.7 161.966 137.9C163.466 137.1 165.183 136.7 167.116 136.7C169.416 136.7 171.5 137.283 173.366 138.45C175.233 139.617 176.7 141.283 177.766 143.45C178.866 145.617 179.416 148.133 179.416 151C179.416 153.867 178.866 156.4 177.766 158.6C176.7 160.767 175.233 162.45 173.366 163.65C171.5 164.817 169.416 165.4 167.116 165.4C165.15 165.4 163.433 165.017 161.966 164.25C160.5 163.45 159.35 162.4 158.516 161.1V165H149.966V128H158.516V141.05ZM170.716 151C170.716 148.867 170.116 147.2 168.916 146C167.75 144.767 166.3 144.15 164.566 144.15C162.866 144.15 161.416 144.767 160.216 146C159.05 147.233 158.466 148.917 158.466 151.05C158.466 153.183 159.05 154.867 160.216 156.1C161.416 157.333 162.866 157.95 164.566 157.95C166.266 157.95 167.716 157.333 168.916 156.1C170.116 154.833 170.716 153.133 170.716 151ZM210.202 150.6C210.202 151.4 210.152 152.233 210.052 153.1H190.702C190.835 154.833 191.385 156.167 192.352 157.1C193.352 158 194.568 158.45 196.002 158.45C198.135 158.45 199.618 157.55 200.452 155.75H209.552C209.085 157.583 208.235 159.233 207.002 160.7C205.802 162.167 204.285 163.317 202.452 164.15C200.618 164.983 198.568 165.4 196.302 165.4C193.568 165.4 191.135 164.817 189.002 163.65C186.868 162.483 185.202 160.817 184.002 158.65C182.802 156.483 182.202 153.95 182.202 151.05C182.202 148.15 182.785 145.617 183.952 143.45C185.152 141.283 186.818 139.617 188.952 138.45C191.085 137.283 193.535 136.7 196.302 136.7C199.002 136.7 201.402 137.267 203.502 138.4C205.602 139.533 207.235 141.15 208.402 143.25C209.602 145.35 210.202 147.8 210.202 150.6ZM201.452 148.35C201.452 146.883 200.952 145.717 199.952 144.85C198.952 143.983 197.702 143.55 196.202 143.55C194.768 143.55 193.552 143.967 192.552 144.8C191.585 145.633 190.985 146.817 190.752 148.35H201.452ZM230.262 157.75V165H225.912C222.812 165 220.396 164.25 218.662 162.75C216.929 161.217 216.062 158.733 216.062 155.3V144.2H212.662V137.1H216.062V130.3H224.612V137.1H230.212V144.2H224.612V155.4C224.612 156.233 224.812 156.833 225.212 157.2C225.612 157.567 226.279 157.75 227.212 157.75H230.262Z" fill="white"/>
</svg>
