<svg width="43" height="42" viewBox="0 0 43 42" fill="none" xmlns="http://www.w3.org/2000/svg">
<rect x="0.5" width="42" height="42" rx="21" fill="#E0E0E0"/>
<path d="M15.5 18H11.5V30H15.5V18Z" stroke="#23C55E" stroke-width="2" stroke-linecap="round" stroke-linejoin="round"/>
<path d="M13.5 15C14.6046 15 15.5 14.1046 15.5 13C15.5 11.8954 14.6046 11 13.5 11C12.3954 11 11.5 11.8954 11.5 13C11.5 14.1046 12.3954 15 13.5 15Z" stroke="#23C55E" stroke-width="2" stroke-linecap="round" stroke-linejoin="round"/>
<path d="M24.5 16C26.0913 16 27.6174 16.6321 28.7426 17.7574C29.8679 18.8826 30.5 20.4087 30.5 22V29H26.5V22C26.5 21.4696 26.2893 20.9609 25.9142 20.5858C25.5391 20.2107 25.0304 20 24.5 20C23.9696 20 23.4609 20.2107 23.0858 20.5858C22.7107 20.9609 22.5 21.4696 22.5 22V29H18.5V22C18.5 20.4087 19.1321 18.8826 20.2574 17.7574C21.3826 16.6321 22.9087 16 24.5 16Z" stroke="#23C55E" stroke-width="2" stroke-linecap="round" stroke-linejoin="round"/>
</svg>
