<?xml version="1.0" encoding="utf-8"?>
<!-- Generator: Adobe Illustrator 25.2.0, SVG Export Plug-In . SVG Version: 6.00 Build 0)  -->
<svg version="1.1" id="Layer_1" xmlns="http://www.w3.org/2000/svg" xmlns:xlink="http://www.w3.org/1999/xlink" x="0px" y="0px"
	 viewBox="0 0 128 128" style="enable-background:new 0 0 128 128;" xml:space="preserve">
<g>
	<path d="M114.6,84.2l-25.3-6.3V60.4l5.7,8l6.2-8.4C94.6,49.8,86.4,40.6,77,32.9c-3.5-2.9-7.5-7.3-11.3-7.4
		c-3.6-0.1-7.7,4.3-10.8,7.5C47,41,39.5,49.4,32.1,57.9c-0.6,1.3-0.6,2.8,0.1,4.1c1.4,2.3,3,4.5,4.8,6.6l5.9-8.4v17.4
		C35,79.8,27.1,82,19.2,84c-1,0-2-0.5-2.6-1.3c-2.8-4.6-5.4-9.3-7.7-14.1c-2.9-7-2.3-14.9,1.7-21.3c9.7-18.7,25.1-33.9,44-43.3
		C61.6,0.2,70,0.1,77,3.8c19.2,9.4,34.8,24.8,44.5,43.8c4.2,7.3,4.3,16.3,0.3,23.8C119.5,75.8,116.9,80.2,114.6,84.2z M82.2,26.7
		c-1.7,6.7,3.8,8.2,7.1,12.1V26.7H82.2z"/>
	<path d="M20.3,95.5c29.5-8.6,60.8-8.6,90.4-0.1c-10,12.3-23.1,21.8-38,27.4c-4.6,1.3-9.5,1.3-14.2,0
		C43.6,117.3,30.4,107.8,20.3,95.5z"/>
	<path d="M74.8,46.8c-1.4-0.5-3,0.1-3.8,1.4c-1.4,1.6-2.3,3.4-2.9,5.4c-0.6,2-1,4-1.6,6c-0.2-0.1-0.4-0.3-0.7-0.5
		c-0.7-0.6-1.7-0.8-2.6-0.3c-0.9,0.5-1.5,1.4-1.4,2.5c0,1.7,0.9,3.2,2.3,4.1c0.4,0.2,0.8,0.4,1.3,0.5c0,0.1,0,0.2,0,0.3
		c-0.8,2.2-1.5,4.4-2.4,6.5c-0.8,1.8-2.3,3.3-4.1,4.2C58,77.2,57,77.4,56,77.4c-1,0-1.9,0-2.9-0.3c-2.7-0.8-4.6-3.3-4.6-6.1
		c-0.1-2.5,1.1-5,3.2-6.4c0.3-0.2,0.4-0.5,0.3-0.9c0,0,0,0,0-0.1c-0.5-1.4-1-2.7-1.5-4.1c-0.1-0.2-0.1-0.3-0.1-0.5
		c-0.1-1.8,0-3.6,0.2-5.3c0.8-4.5,4-8.3,8.4-9.8c1.6-0.6,3.3-1,5-1.2c0.1,0,0.2,0,0.3-0.1c0.7-0.7,1.4-0.4,2.2-0.3
		c0.7,0.1,1.3,0.2,2,0.3c1,0.3,1.9,0.7,2.8,1.2c1.2,0.6,2.2,1.3,3.1,2.3C74.5,46.4,74.6,46.6,74.8,46.8z"/>
	<path d="M78.6,66.8L75.7,65l3.5-1.3c0-0.1-0.1-0.2-0.1-0.3c-0.4-1-0.4-1,0.4-1.8c0.2-0.2,0.4-0.4,0.6-0.7c0.3-0.4,0.3-1.1-0.2-1.4
		c0,0-0.1-0.1-0.1-0.1c-1.5-1-2.4-2.7-2.4-4.5c0-0.6-0.4-1.1-1-1.2c-1.2-0.2-2.5-0.2-3.7,0.2c-0.2,0-0.4,0.1-0.6,0.1
		c0.7-1.3,2.7-1.9,5.3-1.6l-0.5-2.8l0.1,0l1.1,3.5c0,0.2,0.1,0.4,0.2,0.6c0.7,1,1.4,1.9,2.1,2.8c0.9,1.2,1.9,2.4,2.6,3.6
		c1.2,1.8,1.3,4.2,0.3,6.1c-1,2.3-2.5,4.4-4.2,6.2c-0.2,0.2-0.4,0.4-0.5,0.7c-0.8,1.2-1.9,2.1-3.3,2.5c-1.4,0.4-2.8,1-4.1,1.7
		c-0.4,0.1-0.8,0.2-1.2,0.2c0.2-1.9,0.7-3.7,1.5-5.5c0.5-1.1,1.3-1.4,2.7-1.2c0.9,0.1,1.8,0.1,2.7-0.1c1.1-0.2,1.9-1.2,1.7-2.3
		C78.6,68,78.6,67.4,78.6,66.8z"/>
	<path d="M73.6,57.4l-1.3-0.1c1.3-1,2.9-1.7,4.5-1.8c0,0.1-0.1,0.2-0.1,0.4c-0.5,0.6-0.7,1.3-0.8,2c0,0.6-0.5,1-1,1c0,0,0,0,0,0
		c-0.6,0-0.9-0.4-1.1-0.9C73.7,57.8,73.7,57.6,73.6,57.4z"/>
</g>
</svg>
